<svg xmlns="http://www.w3.org/2000/svg" version="1.1" xmlns:xlink="http://www.w3.org/1999/xlink" xmlns:svgjs="http://svgjs.com/svgjs" width="512" height="512" x="0" y="0" viewBox="0 0 256 256" style="enable-background:new 0 0 512 512" xml:space="preserve" class=""><g><g id="Layer_84"><g><g><g><path d="m49.917 244.679c0-1.589 1.288-2.877 2.877-2.877h6.097c-2.251 0-4.076-1.825-4.076-4.076v-67.792l-7.29 1.835c-5.744 1.446-9.88 6.458-10.21 12.372l-3.792 65.388c-.12 2.157 1.596 3.972 3.757 3.972h21.458c-4.872-.001-8.821-3.95-8.821-8.822z" fill="#70d6f9" data-original="#70d6f9" class=""></path></g></g><g><g><path d="m137.806 165.064-9.414-4.642c-4.046-1.995-6.609-6.115-6.609-10.627v-5.582c-4.737 2.479-10.11 3.892-15.8 3.892-5.69 0-11.064-1.412-15.8-3.892v5.582c0 4.512-2.562 8.632-6.609 10.627l-9.414 4.642-.213.054h64.073z" fill="#fbd9c1" data-original="#f9d0b4" class=""></path></g></g><g><g><path d="m174.651 184.141c-.329-5.914-4.466-10.926-10.21-12.372l-7.29-1.835v67.792c0 2.251-1.825 4.076-4.076 4.076h6.097c1.589 0 2.877 1.288 2.877 2.877 0 4.872-3.949 8.821-8.821 8.821h21.458c2.16 0 3.877-1.815 3.757-3.972z" fill="#70d6f9" data-original="#70d6f9" class=""></path></g></g><g><g><path d="m135.38 72.788c-2.243-2.352-5.889-2.568-8.445-.562-4.042 3.172-11.036 7.094-20.914 7.094-9.902 0-16.933-3.941-20.992-7.118-2.554-1.999-6.193-1.774-8.431.573l-.012.012c-3.145 3.298-4.899 7.681-4.899 12.238v28.784c0 18.863 15.433 34.296 34.297 34.296 18.863 0 34.297-15.434 34.297-34.296v-28.783c-.001-4.557-1.756-8.94-4.901-12.238z" fill="#fbd9c1" data-original="#f9d0b4" class=""></path></g></g><g><g><path d="m142.48 87.671c-.749 0-1.483.063-2.201.174v25.964c0 .773-.035 1.539-.086 2.3.747.12 1.507.2 2.287.2 7.908 0 14.319-6.411 14.319-14.319s-6.41-14.319-14.319-14.319z" fill="#fbd9c1" data-original="#f9d0b4" class=""></path></g></g><g><g><path d="m71.686 113.81v-25.965c-.718-.111-1.452-.174-2.201-.174-7.908 0-14.319 6.411-14.319 14.319s6.411 14.319 14.319 14.319c.78 0 1.541-.08 2.287-.2-.05-.761-.086-1.526-.086-2.299z" fill="#fbd9c1" data-original="#f9d0b4" class=""></path></g></g><g><g><path d="m140.152 58.415c-1.149 0-2.144-.886-2.16-2.034-.263-19.111-22.087-22.701-43.82-18.948-18.426 3.182-31.894 19.161-31.894 37.86v14.338c2.119-1.239 4.576-1.96 7.208-1.96.749 0 1.483.063 2.201.174v-2.819c0-4.557 1.754-8.939 4.899-12.238l.012-.012c2.238-2.347 5.877-2.571 8.431-.573 4.059 3.177 11.09 7.118 20.992 7.118 9.878 0 16.872-3.922 20.914-7.094 2.556-2.007 6.203-1.79 8.445.562 3.145 3.298 4.899 7.681 4.899 12.238v2.819c.718-.111 1.452-.174 2.201-.174 2.663 0 5.148.74 7.284 2.007v-11.775c0-17.112-6.179-19.489-9.612-19.489z" fill="#ff04b2" data-original="#5b5d60" class=""></path></g></g><g><g><path d="m178.967 11.636c-12.961.713-23.769 10.935-25.137 23.843-1.145 10.797 4.139 20.441 12.482 25.648 1.699 1.061 2.682 2.968 2.682 4.971v4.541c0 2.924 2.371 5.295 5.296 5.295h12.388c2.925 0 5.296-2.371 5.296-5.295v-4.54c0-2 .978-3.909 2.675-4.968 7.586-4.731 12.644-13.13 12.644-22.729-.001-15.308-12.832-27.619-28.326-26.766z" fill="#f5c84c" data-original="#f5c84c" class=""></path></g></g><g><g><path d="m186.677 75.934h-12.388c-1.114 0-2.145-.347-2.998-.935v6.637c0 2.306 1.669 4.292 3.948 4.644 1.709.264 3.46.402 5.244.402s3.534-.138 5.244-.402c2.279-.352 3.948-2.338 3.948-4.644v-6.636c-.853.587-1.884.934-2.998.934z" fill="#5290db" data-original="#5290db"></path></g></g><g><g><path d="m52.793 241.802h5.687v-.041c-2.055-.209-3.666-1.925-3.666-4.035v-10.952h-19.971l-1.32 22.754c-.12 2.157 1.596 3.972 3.757 3.972h21.2v-.013c-4.752-.138-8.563-4.023-8.563-8.808 0-1.589 1.287-2.877 2.876-2.877z" fill="#fbd9c1" data-original="#f9d0b4" class=""></path></g></g><g><g><path d="m177.123 226.774h-19.972v10.952c0 2.11-1.61 3.826-3.666 4.035v.041h5.687c1.589 0 2.877 1.288 2.877 2.877 0 4.785-3.812 8.67-8.563 8.808v.013h21.2c2.16 0 3.877-1.815 3.757-3.972z" fill="#fbd9c1" data-original="#f9d0b4" class=""></path></g></g><g><g><path d="m153.075 165.118h-94.184c-2.251 0-4.076 1.825-4.076 4.076v68.531c0 2.251 1.825 4.076 4.076 4.076h94.184c2.251 0 4.076-1.825 4.076-4.076v-68.531c0-2.251-1.825-4.076-4.076-4.076z" fill="#edf4fc" data-original="#edf4fc"></path></g></g><g><g><path d="m159.173 241.802h-106.38c-1.589 0-2.877 1.288-2.877 2.877 0 4.872 3.949 8.821 8.821 8.821h94.49c4.872 0 8.821-3.949 8.821-8.821.001-1.589-1.287-2.877-2.875-2.877z" fill="#c7d7e5" data-original="#c7d7e5" class=""></path></g></g><g><g><path d="m152.649 6.21c-3.158-.562-5.613-3.018-6.245-6.104 0-.141-.281-.141-.281 0-.631 3.087-3.087 5.543-6.245 6.104-.14 0-.14.21 0 .28 3.158.562 5.613 3.018 6.245 6.104 0 .141.281.141.281 0 .631-3.087 3.087-5.543 6.245-6.104.14-.07.14-.28 0-.28z" fill="#fc657e" data-original="#fc657e" class=""></path></g></g><g><g><path d="m46.954 71.79h-2.3v-2.3c0-1.7-1.4-3.2-3.2-3.2s-3.2 1.4-3.2 3.2v2.3h-2.3c-1.7 0-3.2 1.4-3.2 3.2s1.4 3.2 3.2 3.2h2.3v2.3c0 1.7 1.4 3.2 3.2 3.2s3.2-1.4 3.2-3.2v-2.3h2.3c1.7 0 3.2-1.4 3.2-3.2s-1.4-3.2-3.2-3.2z" fill="#70d6f9" data-original="#70d6f9" class=""></path></g></g><g><g><path d="m33.196 101.663c-1.878 0-3.4 1.522-3.4 3.4 0 1.877 1.522 3.4 3.4 3.4s3.4-1.522 3.4-3.4c0-1.877-1.522-3.4-3.4-3.4z" fill="#f5c84c" data-original="#f5c84c" class=""></path></g></g><g><g><path d="m195.196 176.537c-1.878 0-3.4 1.522-3.4 3.4s1.522 3.4 3.4 3.4 3.4-1.522 3.4-3.4-1.522-3.4-3.4-3.4z" fill="#87d147" data-original="#87d147" class=""></path></g></g><g><g><path d="m190.196 156.54c-4.5-.8-8-4.3-8.9-8.7 0-.2-.4-.2-.4 0-.9 4.4-4.4 7.9-8.9 8.7-.2.1-.2.4 0 .4 4.5.8 8 4.3 8.9 8.7 0 .2.4.2.4 0 .9-4.4 4.4-7.9 8.9-8.7.2 0 .2-.3 0-.4z" fill="#f5c84c" data-original="#f5c84c" class=""></path></g></g><g><g><path d="m58.737 251h-21.458c-.473 0-.777-.247-.916-.395-.14-.147-.37-.466-.344-.933l3.792-65.394c.27-4.848 3.614-8.901 8.323-10.086l6.915-1.74c1.339-.337 2.151-1.696 1.814-3.035-.338-1.339-1.696-2.144-3.035-1.814l-6.915 1.74c-6.842 1.723-11.703 7.612-12.095 14.652l-3.792 65.394c-.096 1.711.525 3.406 1.703 4.651 1.177 1.245 2.835 1.959 4.549 1.959h21.458c1.381 0 2.5-1.119 2.5-2.5s-1.118-2.499-2.499-2.499z" fill="#000000" data-original="#000000" class=""></path></g></g><g><g><path d="m90.183 142.421c-1.381 0-2.5 1.119-2.5 2.5v4.875c0 3.586-1.998 6.799-5.214 8.385l-9.414 4.642c-1.238.61-1.747 2.109-1.137 3.348.436.883 1.322 1.396 2.244 1.396.371 0 .748-.083 1.104-.259l9.414-4.642c4.937-2.435 8.003-7.365 8.003-12.869v-4.875c0-1.382-1.12-2.501-2.5-2.501z" fill="#000000" data-original="#000000" class=""></path></g></g><g><g><path d="m138.911 162.822-9.414-4.642c-3.216-1.586-5.214-4.799-5.214-8.385v-5.105c0-1.381-1.119-2.5-2.5-2.5s-2.5 1.119-2.5 2.5v5.105c0 5.504 3.066 10.435 8.003 12.869l9.414 4.642c.355.176.732.259 1.104.259.922 0 1.809-.513 2.244-1.396.61-1.237.101-2.736-1.137-3.347z" fill="#000000" data-original="#000000" class=""></path></g></g><g><g><path d="m180.938 249.384-3.792-65.382c-.392-7.046-5.253-12.936-12.095-14.658l-6.649-1.674c-1.341-.332-2.697.477-3.035 1.814-.337 1.339.476 2.697 1.814 3.035l6.649 1.674c4.709 1.185 8.054 5.238 8.323 10.092l3.792 65.382c.026.473-.204.791-.343.938-.14.147-.444.395-.918.395h-21.458c-1.381 0-2.5 1.119-2.5 2.5s1.119 2.5 2.5 2.5h21.458c1.714 0 3.372-.714 4.55-1.959s1.8-2.94 1.704-4.657z" fill="#000000" data-original="#000000" class=""></path></g></g><g><g><g><path d="m137.188 71.063c-3.129-3.28-8.201-3.626-11.798-.803-3.813 2.993-10.268 6.561-19.37 6.561-9.121 0-15.612-3.581-19.451-6.586-3.593-2.813-8.656-2.46-11.792.828-3.605 3.779-5.591 8.738-5.591 13.963v28.784c0 20.29 16.507 36.797 36.797 36.797 20.289 0 36.796-16.507 36.796-36.797v-28.785c0-5.224-1.985-10.183-5.591-13.962zm.591 42.747c0 17.533-14.264 31.797-31.797 31.797-17.532 0-31.796-14.264-31.796-31.797v-28.785c0-3.934 1.494-7.666 4.221-10.523.73-.767 1.711-1.157 2.704-1.157.829 0 1.668.272 2.376.827 4.459 3.489 11.987 7.648 22.533 7.648 10.53 0 18.025-4.147 22.458-7.627 1.558-1.226 3.748-1.091 5.092.32h.001c2.714 2.846 4.208 6.578 4.208 10.512z" fill="#000000" data-original="#000000" class=""></path></g></g></g><g><g><path d="m142.48 85.171c-.591 0-1.194.033-1.793.099-1.373.15-2.364 1.385-2.214 2.757s1.389 2.357 2.757 2.214c.42-.046.841-.069 1.25-.069 6.518 0 11.819 5.302 11.819 11.819s-5.302 11.818-11.819 11.818c-.386 0-.788-.024-1.229-.075-1.376-.161-2.611.829-2.768 2.201s.829 2.61 2.201 2.768c.632.071 1.219.106 1.796.106 9.274 0 16.819-7.545 16.819-16.818.001-9.275-7.544-16.82-16.819-16.82z" fill="#000000" data-original="#000000" class=""></path></g></g><g><g><path d="m69.485 90.171c.428 0 .871.026 1.317.077 1.378.172 2.612-.825 2.77-2.197s-.826-2.612-2.197-2.77c-.636-.073-1.271-.11-1.89-.11-9.274 0-16.819 7.545-16.819 16.819 0 9.273 7.545 16.818 16.819 16.818.553 0 1.109-.032 1.702-.097 1.373-.151 2.362-1.387 2.212-2.759-.151-1.372-1.383-2.35-2.759-2.212-.409.046-.787.067-1.155.067-6.518 0-11.819-5.302-11.819-11.818s5.302-11.818 11.819-11.818z" fill="#000000" data-original="#000000" class=""></path></g></g><g><g><path d="m117.38 120.951c-1.058-.886-2.635-.749-3.522.31-1.621 1.935-4.378 3.089-7.376 3.089s-5.755-1.154-7.376-3.089c-.887-1.058-2.463-1.196-3.522-.31-1.058.887-1.196 2.464-.31 3.522 2.56 3.053 6.749 4.876 11.208 4.876s8.648-1.823 11.208-4.876c.886-1.058.748-2.635-.31-3.522z" fill="#000000" data-original="#000000" class=""></path></g></g><g><g><circle cx="121.955" cy="103.573" r="4.608" fill="#000000" data-original="#000000" class=""></circle></g></g><g><g><circle cx="91.009" cy="103.573" r="4.608" fill="#000000" data-original="#000000" class=""></circle></g></g><g><g><path d="m140.481 55.92c-.187-6.425-2.604-11.609-7.187-15.416-7.834-6.505-22.249-8.521-39.55-5.535-19.683 3.4-33.968 20.358-33.968 40.324v13.768c0 1.381 1.119 2.5 2.5 2.5s2.5-1.119 2.5-2.5v-13.768c0-17.526 12.541-32.412 29.819-35.396 15.856-2.739 28.797-1.116 35.504 4.454 3.557 2.954 5.32 6.9 5.391 12.066.036 2.48 2.127 4.498 4.66 4.498 4.521 0 7.113 6.192 7.113 16.989v11.14c0 1.381 1.119 2.5 2.5 2.5s2.5-1.119 2.5-2.5v-11.14c.002-18.674-7.228-21.842-11.782-21.984z" fill="#000000" data-original="#000000" class=""></path></g></g><g><g><path d="m112.292 203.999h-12.861c-1.381 0-2.5 1.119-2.5 2.5s1.119 2.5 2.5 2.5h12.861c1.381 0 2.5-1.119 2.5-2.5s-1.119-2.5-2.5-2.5z" fill="#000000" data-original="#000000" class=""></path></g></g><g><g><g><path d="m200.626 17.113c-5.906-5.591-13.65-8.432-21.797-7.974-14.176.779-25.992 11.99-27.486 26.076-1.195 11.293 4.032 22.033 13.646 28.032.928.579 1.505 1.672 1.505 2.851v4.54c0 4.299 3.497 7.796 7.796 7.796h12.388c4.299 0 7.796-3.497 7.796-7.796v-4.54c0-1.179.574-2.27 1.498-2.846 8.653-5.397 13.82-14.688 13.82-24.851-.001-8.133-3.256-15.694-9.166-21.288zm-7.302 41.898c-2.376 1.481-3.852 4.197-3.852 7.088v4.54c0 1.542-1.254 2.796-2.796 2.796h-12.388c-1.542 0-2.796-1.254-2.796-2.796v-4.54c0-2.89-1.479-5.607-3.858-7.093-7.975-4.977-12.313-13.891-11.319-23.263 1.238-11.674 11.035-20.965 22.789-21.611.465-.025.929-.038 1.39-.038 6.25 0 12.134 2.333 16.695 6.65 4.902 4.641 7.602 10.911 7.602 17.658 0 8.426-4.286 16.13-11.467 20.609z" fill="#000000" data-original="#000000" class=""></path></g></g></g><g><g><path d="m189.675 73.43c-1.381 0-2.5 1.119-2.5 2.5v5.707c0 1.077-.787 2.012-1.829 2.173-3.21.494-6.515.494-9.725 0-1.043-.161-1.83-1.096-1.83-2.173v-5.707c0-1.381-1.119-2.5-2.5-2.5s-2.5 1.119-2.5 2.5v5.707c0 3.521 2.607 6.579 6.067 7.114 1.855.286 3.748.432 5.624.432 1.877 0 3.77-.146 5.626-.432 3.459-.535 6.066-3.594 6.066-7.114v-5.707c.001-1.381-1.118-2.5-2.499-2.5z" fill="#000000" data-original="#000000" class=""></path></g></g><g><g><path d="m182.038 56.048-6.487-5.155v-13.805c0-1.381-1.119-2.5-2.5-2.5s-2.5 1.119-2.5 2.5v15.011c0 .763.348 1.482.944 1.957l6.487 5.155v14.497c0 1.381 1.119 2.5 2.5 2.5s2.5-1.119 2.5-2.5v-15.703c0-.763-.347-1.483-.944-1.957z" fill="#000000" data-original="#000000" class=""></path></g></g><g><g><path d="m187.915 34.588c-1.381 0-2.5 1.119-2.5 2.5v13.804l-6.38 5.07c-1.081.858-1.261 2.432-.401 3.513.493.621 1.223.944 1.959.944.545 0 1.094-.178 1.554-.543l7.324-5.82c.597-.474.944-1.194.944-1.957v-15.011c0-1.381-1.119-2.5-2.5-2.5z" fill="#000000" data-original="#000000" class=""></path></g></g><g><g><path d="m190.982 37.843h-20.999c-1.381 0-2.5 1.119-2.5 2.5s1.119 2.5 2.5 2.5h20.999c1.381 0 2.5-1.119 2.5-2.5s-1.119-2.5-2.5-2.5z" fill="#000000" data-original="#000000" class=""></path></g></g><g><g><path d="m222.482 36.373h-5c-1.381 0-2.5 1.119-2.5 2.5s1.119 2.5 2.5 2.5h5c1.381 0 2.5-1.119 2.5-2.5s-1.119-2.5-2.5-2.5z" fill="#000000" data-original="#000000" class=""></path></g></g><g><g><path d="m219.021 16.623c-.69-1.196-2.222-1.605-3.415-.915l-4.331 2.5c-1.195.69-1.605 2.219-.915 3.415.463.802 1.304 1.25 2.167 1.25.425 0 .854-.107 1.248-.335l4.331-2.5c1.196-.69 1.606-2.219.915-3.415z" fill="#000000" data-original="#000000" class=""></path></g></g><g><g><path d="m202.732.335c-1.193-.689-2.725-.281-3.415.915l-2.5 4.33c-.69 1.195-.28 2.725.915 3.415.394.228.823.335 1.248.335.863 0 1.704-.448 2.167-1.25l2.5-4.33c.691-1.195.281-2.725-.915-3.415z" fill="#000000" data-original="#000000" class=""></path></g></g><g><g><path d="m54 224.274h-18.292c-1.381 0-2.5 1.119-2.5 2.5s1.119 2.5 2.5 2.5h18.292c1.381 0 2.5-1.119 2.5-2.5s-1.119-2.5-2.5-2.5z" fill="#000000" data-original="#000000" class=""></path></g></g><g><g><path d="m176.292 224.274h-18.25c-1.381 0-2.5 1.119-2.5 2.5s1.119 2.5 2.5 2.5h18.25c1.381 0 2.5-1.119 2.5-2.5s-1.119-2.5-2.5-2.5z" fill="#000000" data-original="#000000" class=""></path></g></g><g><g><g><path d="m153.075 162.618h-94.184c-3.626 0-6.576 2.95-6.576 6.576v68.531c0 3.626 2.95 6.576 6.576 6.576h94.185c3.626 0 6.576-2.95 6.576-6.576v-68.531c-.001-3.626-2.951-6.576-6.577-6.576zm1.576 75.108c0 .869-.707 1.576-1.576 1.576h-94.184c-.869 0-1.576-.707-1.576-1.576v-68.531c0-.869.707-1.576 1.576-1.576h94.185c.869 0 1.576.707 1.576 1.576v68.531z" fill="#000000" data-original="#000000" class=""></path></g></g></g><g><g><g><path d="m159.173 239.302h-106.38c-2.965 0-5.377 2.412-5.377 5.377 0 6.242 5.079 11.321 11.322 11.321h94.489c6.242 0 11.321-5.079 11.321-11.321.001-2.965-2.411-5.377-5.375-5.377zm-5.945 11.698h-94.49c-3.486 0-6.322-2.836-6.322-6.321 0-.208.169-.377.377-.377h106.38c.207 0 .376.169.376.377 0 3.485-2.836 6.321-6.321 6.321z" fill="#000000" data-original="#000000" class=""></path></g></g></g></g></g></g></svg>