<svg xmlns="http://www.w3.org/2000/svg" viewBox="0 0 278.56 174.1"><defs><style>.cls-1{fill:#20a7f5;}</style></defs><title>Asset 4</title><g id="Layer_2" data-name="Layer 2"><g id="Layer_1-2" data-name="Layer 1"><path class="cls-1" d="M67.68,144.85a19.37,19.37,0,0,1-7.94-1.56,13.12,13.12,0,0,1-5.6-4.6,14,14,0,0,1-2.33-7.35c0-.63-.06-1.41-.06-2.36s0-1.75.06-2.42a14.18,14.18,0,0,1,2.3-7.4,12.82,12.82,0,0,1,5.6-4.6,19.58,19.58,0,0,1,8-1.57,20.18,20.18,0,0,1,7.46,1.24,15.58,15.58,0,0,1,5,3.07A14.3,14.3,0,0,1,83,121,7.85,7.85,0,0,1,84,124a1.33,1.33,0,0,1-.44,1.12,1.6,1.6,0,0,1-1.09.47H73a1.47,1.47,0,0,1-1-.32,3.23,3.23,0,0,1-.64-.92A5.38,5.38,0,0,0,70,122.46a3.21,3.21,0,0,0-2.07-.62,3.09,3.09,0,0,0-2.71,1.27,6.79,6.79,0,0,0-.94,3.75,36.3,36.3,0,0,0,0,4.19,7,7,0,0,0,1,3.74A3,3,0,0,0,67.91,136a3.24,3.24,0,0,0,2.19-.62,5.13,5.13,0,0,0,1.24-1.91,2.25,2.25,0,0,1,.61-.92,1.6,1.6,0,0,1,1-.32h9.5a1.6,1.6,0,0,1,1.09.47,1.32,1.32,0,0,1,.44,1.12A7.94,7.94,0,0,1,83.4,136a12.2,12.2,0,0,1-1.71,2.89,14.28,14.28,0,0,1-3,2.87,16.27,16.27,0,0,1-4.6,2.21A21.27,21.27,0,0,1,67.68,144.85Z"/><path class="cls-1" d="M93.87,144.26a1.47,1.47,0,0,1-1.09-.44,1.49,1.49,0,0,1-.44-1.09V103.91a1.52,1.52,0,0,1,1.53-1.54h8.79a1.52,1.52,0,0,1,1.07.45,1.43,1.43,0,0,1,.47,1.09v38.82a1.44,1.44,0,0,1-.47,1.09,1.51,1.51,0,0,1-1.07.44Z"/><path class="cls-1" d="M129.51,144.85a22.24,22.24,0,0,1-8.76-1.53,11.77,11.77,0,0,1-5.46-4.51,14.64,14.64,0,0,1-2.12-7.17c0-.83-.06-1.73-.06-2.72s0-1.88.06-2.71a13.85,13.85,0,0,1,2.24-7.2,12.5,12.5,0,0,1,5.57-4.48,24.37,24.37,0,0,1,17,0,12.59,12.59,0,0,1,5.58,4.48,13.94,13.94,0,0,1,2.24,7.2c.08.83.12,1.73.12,2.71s0,1.89-.12,2.72a14.75,14.75,0,0,1-2.12,7.17,11.77,11.77,0,0,1-5.46,4.51A22.24,22.24,0,0,1,129.51,144.85Zm0-8.32a3.3,3.3,0,0,0,3-1.29,8.13,8.13,0,0,0,.94-3.9c0-.59.06-1.39.06-2.42s0-1.83-.06-2.42a8.14,8.14,0,0,0-.94-3.86,3.28,3.28,0,0,0-3-1.33,3.2,3.2,0,0,0-2.95,1.33,8.45,8.45,0,0,0-1,3.86c0,.59-.06,1.4-.06,2.42s0,1.83.06,2.42a8.42,8.42,0,0,0,1,3.9A3.22,3.22,0,0,0,129.51,136.53Z"/><path class="cls-1" d="M166,144.85a11.67,11.67,0,0,1-5.81-1.47,10.39,10.39,0,0,1-4.16-4.43,15.89,15.89,0,0,1-1.54-7.43v-16.4A1.46,1.46,0,0,1,155,114a1.45,1.45,0,0,1,1.09-.45h9.32a1.52,1.52,0,0,1,1.53,1.54v16q0,4.54,4.07,4.54a3.93,3.93,0,0,0,3-1.18,4.77,4.77,0,0,0,1.09-3.36v-16a1.54,1.54,0,0,1,1.54-1.54H186A1.49,1.49,0,0,1,187,114a1.41,1.41,0,0,1,.47,1.09v27.61a1.41,1.41,0,0,1-.47,1.09,1.48,1.48,0,0,1-1.06.44h-8.61a1.44,1.44,0,0,1-1.09-.44,1.46,1.46,0,0,1-.45-1.09v-2.12a8.67,8.67,0,0,1-4,3.21A15.2,15.2,0,0,1,166,144.85Z"/><path class="cls-1" d="M209,144.85a14.3,14.3,0,0,1-5-.82,10.31,10.31,0,0,1-3.89-2.54,12.06,12.06,0,0,1-2.6-4.31,20.91,20.91,0,0,1-1.12-6.07q-.06-1.31-.06-2.25c0-.62,0-1.35.06-2.18a19.25,19.25,0,0,1,1.06-5.87,12.1,12.1,0,0,1,2.6-4.28,11.21,11.21,0,0,1,3.92-2.62,13.27,13.27,0,0,1,5-.92,12.26,12.26,0,0,1,4.72.86,10.55,10.55,0,0,1,3.48,2.27V103.91a1.52,1.52,0,0,1,1.54-1.54h9.08a1.46,1.46,0,0,1,1.09.45,1.45,1.45,0,0,1,.45,1.09v38.82a1.52,1.52,0,0,1-1.54,1.53h-8.38a1.5,1.5,0,0,1-1.06-.44,1.44,1.44,0,0,1-.47-1.09v-1.65a10.33,10.33,0,0,1-3.57,2.74A12.31,12.31,0,0,1,209,144.85Zm4-9.2a4.16,4.16,0,0,0,2.45-.65,3.52,3.52,0,0,0,1.3-1.71,8.18,8.18,0,0,0,.44-2.36c.08-.87.12-1.61.12-2.24s0-1.36-.12-2.19a5.87,5.87,0,0,0-.5-2.18,3.64,3.64,0,0,0-1.33-1.53,4.15,4.15,0,0,0-2.36-.59,4,4,0,0,0-2.36.62,3.4,3.4,0,0,0-1.27,1.71,10.42,10.42,0,0,0-.5,2.51,19.79,19.79,0,0,0,0,3.77,10.42,10.42,0,0,0,.5,2.51,3.4,3.4,0,0,0,1.27,1.71A4.07,4.07,0,0,0,213,135.65Z"/><path class="cls-1" d="M225.92,69.64a51.27,51.27,0,0,1,20.41,4.08,55.35,55.35,0,0,1,16.73,11,49.43,49.43,0,0,1,11.29,16.59,54,54,0,0,1,4.21,20.54,50.28,50.28,0,0,1-4.08,20.27,54.59,54.59,0,0,1-11.15,16.59A50.89,50.89,0,0,1,246.6,170a51.55,51.55,0,0,1-20.27,4.08H69.64a67.76,67.76,0,0,1-27.07-5.44A71.72,71.72,0,0,1,20.4,153.84,69.26,69.26,0,0,1,0,104.46,67.76,67.76,0,0,1,5.44,77.39,71.57,71.57,0,0,1,20.27,55.22a69.21,69.21,0,0,1,49.37-20.4A67.64,67.64,0,0,1,82.29,36,81.12,81.12,0,0,1,94.8,21,77.42,77.42,0,0,1,110.45,9.52a72.53,72.53,0,0,1,18-7.07A86.55,86.55,0,0,1,148,0a76.25,76.25,0,0,1,28.42,5.3,80.73,80.73,0,0,1,23.81,14.56,73.26,73.26,0,0,1,17,22.17A90.1,90.1,0,0,1,225.92,69.64Zm.41,87.05A33.3,33.3,0,0,0,239.8,154,37,37,0,0,0,251,146.49a32.41,32.41,0,0,0,7.48-11,36.92,36.92,0,0,0,2.72-13.6,33.28,33.28,0,0,0-2.72-13.46A36.89,36.89,0,0,0,251,97.25a32.46,32.46,0,0,0-11-7.48,37.13,37.13,0,0,0-13.6-2.72H208.92v-8.7a58.89,58.89,0,0,0-4.76-23.67A63,63,0,0,0,191.1,35.23a58.68,58.68,0,0,0-19.31-13.06A62.69,62.69,0,0,0,148,17.41a59.25,59.25,0,0,0-18.37,2.86,59.94,59.94,0,0,0-16.18,8,65.44,65.44,0,0,0-13.2,12.38A55.65,55.65,0,0,0,91.13,57a51.61,51.61,0,0,0-41.76-.68A54.71,54.71,0,0,0,32.78,67.46,51,51,0,0,0,21.49,84.19a51.59,51.59,0,0,0-4.08,20.27,50.28,50.28,0,0,0,4.08,20.27,54.59,54.59,0,0,0,11.15,16.59,51.46,51.46,0,0,0,37,15.37Z"/></g></g></svg>