<svg xmlns="http://www.w3.org/2000/svg" viewBox="0 0 278.56 174.1"><defs><style>.cls-1{fill:#20a7f5;}</style></defs><title>Asset 5</title><g id="Layer_2" data-name="Layer 2"><g id="Layer_1-2" data-name="Layer 1"><path class="cls-1" d="M225.92,69.64a51.27,51.27,0,0,1,20.41,4.08,55.35,55.35,0,0,1,16.73,11,49.43,49.43,0,0,1,11.29,16.59,54,54,0,0,1,4.21,20.54,50.28,50.28,0,0,1-4.08,20.27,54.59,54.59,0,0,1-11.15,16.59A50.89,50.89,0,0,1,246.6,170a51.55,51.55,0,0,1-20.27,4.08H69.64a67.76,67.76,0,0,1-27.07-5.44A71.72,71.72,0,0,1,20.4,153.84,69.26,69.26,0,0,1,0,104.46,67.76,67.76,0,0,1,5.44,77.39,71.57,71.57,0,0,1,20.27,55.22a69.21,69.21,0,0,1,49.37-20.4A67.64,67.64,0,0,1,82.29,36,81.12,81.12,0,0,1,94.8,21,77.42,77.42,0,0,1,110.45,9.52a72.53,72.53,0,0,1,18-7.07A86.55,86.55,0,0,1,148,0a76.25,76.25,0,0,1,28.42,5.3,80.73,80.73,0,0,1,23.81,14.56,73.26,73.26,0,0,1,17,22.17A90.1,90.1,0,0,1,225.92,69.64Zm.41,87.05A33.3,33.3,0,0,0,239.8,154,37,37,0,0,0,251,146.49a32.41,32.41,0,0,0,7.48-11,36.92,36.92,0,0,0,2.72-13.6,33.28,33.28,0,0,0-2.72-13.46A36.89,36.89,0,0,0,251,97.25a32.46,32.46,0,0,0-11-7.48,37.13,37.13,0,0,0-13.6-2.72H208.92v-8.7a58.89,58.89,0,0,0-4.76-23.67A63,63,0,0,0,191.1,35.23a58.68,58.68,0,0,0-19.31-13.06A62.69,62.69,0,0,0,148,17.41a59.25,59.25,0,0,0-18.37,2.86,59.94,59.94,0,0,0-16.18,8,65.44,65.44,0,0,0-13.2,12.38A55.65,55.65,0,0,0,91.13,57a51.61,51.61,0,0,0-41.76-.68A54.71,54.71,0,0,0,32.78,67.46,51,51,0,0,0,21.49,84.19a51.59,51.59,0,0,0-4.08,20.27,50.28,50.28,0,0,0,4.08,20.27,54.59,54.59,0,0,0,11.15,16.59,51.46,51.46,0,0,0,37,15.37Z"/></g></g></svg>