<svg height="512" viewBox="0 0 61 60" width="512" xmlns="http://www.w3.org/2000/svg"><g id="Page-1" fill="none" fill-rule="evenodd"><g id="038---Cloud-Data" fill-rule="nonzero"><g id="Icons" transform="translate(1 1)"><ellipse id="Oval" cx="20" cy="4" fill="#ffeb3a" rx="20" ry="4"/><path id="Shape" d="m20 0h-1.5c10.35.17 18.5 1.89 18.5 4s-8.15 3.83-18.5 4h1.5c11 0 20-1.79 20-4s-8.95-4-20-4z" fill="#fdd834"/><path id="Shape" d="m22 34c-2.0883044 1.6062342-3.4518843 3.9772081-3.79 6.59h-.21c-3.9303518.1349457-7.2175528 3.0285201-7.85 6.91-6.06-.7-10.15-2.01-10.15-3.5v-14c0 2.21 9 4 20 4z" fill="#ffdc00"/><path id="Shape" d="m40 17v10.05c-.35 0-.7-.05-1.06-.05-3.9140448.0527524-7.5051822 2.181539-9.43 5.59-2.5847574-.7583497-5.3763268-.2342335-7.51 1.41h-2c-11 0-20-1.79-20-4v-13c0 2.21 9 4 20 4s20-1.79 20-4z" fill="#ff9801"/><path id="Shape" d="m37 19.1v8c-.35 0-.7-.05-1.06-.05-3.764803.0631793-7.2357108 2.0476331-9.2 5.26h.36c.8159484.0006636 1.6275706.118534 2.41.35 1.9068662-3.4354509 5.5013917-5.5929286 9.43-5.66.36 0 .71 0 1.06.05v-10.05c0 .77-1.11 1.49-3 2.1z" fill="#f57c00"/><path id="Shape" d="m40 4v13c0 2.21-9 4-20 4s-20-1.79-20-4v-13c0 2.21 9 4 20 4s20-1.79 20-4z" fill="#ffdc00"/><path id="Shape" d="m37 6.1v10.9c0 2.11-8.15 3.83-18.5 4h1.5c11 0 20-1.79 20-4v-13c0 .77-1.11 1.49-3 2.1z" fill="#fec108"/><path id="Shape" d="m58.06 47.61c0 5.73-4.3 10.39-9.57 10.39h-30.49c-4.42 0-8-3.91-8-8.71.0001721-.6073111.0570861-1.2132779.17-1.81.6309332-3.874335 3.90728-6.7657215 7.83-6.91h.17c.3531965-2.6118318 1.7312467-4.9757455 3.83-6.57 2.1419524-1.6438559 4.9423164-2.160789 7.53-1.39 1.9161271-3.4100616 5.4989929-5.5460741 9.41-5.61.36 0 .71 0 1.06.05 5.14.53 9.27 4.82 10 10.3 4.58.81 8.06 5.1 8.06 10.26z" fill="#02a9f4"/><path id="Shape" d="m50 37.35c-.77-5.48-4.9-9.77-10-10.3-.35 0-.7-.05-1.06-.05-.5052819.0014291-1.0098455.0381854-1.51.11 5.0994245.9288724 8.9877945 5.0894689 9.57 10.24 4.54.81 8 5.1 8 10.26 0 5.73-4.3 10.39-9.57 10.39h3c5.27 0 9.57-4.66 9.57-10.39.06-5.16-3.42-9.45-8-10.26z" fill="#0377bc"/></g><g id="Icons_copy" fill="#000"><path id="Shape" d="m29 18.23h.09c2.7476065-.1993402 5.4757169-.6105627 8.16-1.23.5357162-.1380712.8580712-.6842838.72-1.22s-.6842838-.8580712-1.22-.72c-2.5844212.6057915-5.2125521 1.0070329-7.86 1.2-.5327656.0577855-.9252781.5252722-.89 1.06.046703.5168638.4810348.9121057 1 .91z"/><circle id="Oval" cx="5" cy="11" r="1"/><path id="Shape" d="m5 14c-.55228475 0-1 .4477153-1 1v2c0 .5522847.44771525 1 1 1s1-.4477153 1-1v-2c0-.5522847-.44771525-1-1-1z"/><circle id="Oval" cx="5" cy="24" r="1"/><path id="Shape" d="m5 27c-.55228475 0-1 .4477153-1 1v2c0 .5522847.44771525 1 1 1s1-.4477153 1-1v-2c0-.5522847-.44771525-1-1-1z"/><circle id="Oval" cx="5" cy="37" r="1"/><path id="Shape" d="m5 40c-.55228475 0-1 .4477153-1 1v2c0 .5522847.44771525 1 1 1s1-.4477153 1-1v-2c0-.5522847-.44771525-1-1-1z"/><path id="Shape" d="m51.92 37.51c-.8994396-5.1376819-4.8218669-9.2182716-9.92-10.32v-22.19c0-4.94-20.14-5-21-5s-21 .06-21 5v40c0 2 3.38 3.51 10 4.35v.94c0 5.35 4.05 9.71 9 9.71h30.49c5.83 0 10.57-5.11 10.57-11.39.1415714-5.1252603-3.2091928-9.6944841-8.14-11.1zm-11.98-10.51c-4.0016574.0350455-7.7177418 2.0790798-9.89 5.44-.6416515-.1318702-1.2949388-.198874-1.95-.2-1.9444118.0169226-3.8365897.6313568-5.42 1.76h-1.68c-11.78 0-18.5-1.93-19-3v-10.64c5.11 2.64 18.31 2.64 19 2.64s13.89 0 19-2.64v6.64zm.06-9c-.47 1.1-7.2 3-19 3s-18.57-1.95-19-3v-10.64c5.11 2.64 18.31 2.64 19 2.64s13.89 0 19-2.64zm-19-16c11.67 0 18.37 1.9 19 3-.61 1.1-7.31 3-19 3s-18.53-1.94-19-2.94v-.06c.47-1.06 7.2-3 19-3zm-19 43v-11.64c4.66 2.37 16 2.64 18.53 2.64-1.074604 1.3441591-1.8240974 2.9184374-2.19 4.6-3.7905383.3989547-6.9414099 3.0962917-7.92 6.78-6.28-.79-8.22-2.01-8.42-2.38zm47.49 13h-30.49c-3.87 0-7-3.46-7-7.71s3.15-7.72 7-7.72h.17c.501932.0049401.9297504-.3629837 1-.86.58-4.26 4-7.47 7.92-7.47.7181197-.0022315 1.4325863.1022424 2.12.31.4412283.1328775.9161328-.0529547 1.15-.45 1.7464853-3.1078336 5.0153922-5.0508901 8.58-5.1 5 0 9.35 4.08 10.11 9.49.0629468.4278521.3937887.7667633.82.84 4.3244087.9492471 7.350959 4.8555596 7.19 9.28 0 5.18-3.85 9.39-8.57 9.39z"/></g></g></g></svg>