<svg xmlns="http://www.w3.org/2000/svg" version="1.1" xmlns:xlink="http://www.w3.org/1999/xlink" xmlns:svgjs="http://svgjs.com/svgjs" width="512" height="512" x="0" y="0" viewBox="0 0 256 256" style="enable-background:new 0 0 512 512" xml:space="preserve" class=""><g><g id="Layer_7"><g><g><g><ellipse cx="214.653" cy="59.167" fill="#f98fa6" rx="34.801" ry="34.801" transform="matrix(.707 -.707 .707 .707 21.033 169.112)" data-original="#f98fa6"></ellipse></g></g><g><g><circle cx="214.116" cy="138.933" fill="#70d6f9" r="34.801" data-original="#70d6f9"></circle></g></g><g><g><circle cx="214.116" cy="218.699" fill="#b598f9" r="34.801" data-original="#b598f9"></circle></g></g><g><g><path d="m231.115 41.147h-31.956c-.841 0-1.522.682-1.522 1.522v6.956c0 .841.682 1.522 1.522 1.522h31.956c.841 0 1.522-.682 1.522-1.522v-6.956c0-.841-.681-1.522-1.522-1.522z" fill="#70d6f9" data-original="#70d6f9"></path></g></g><g><g><path d="m206.115 60.147h-6.956c-.841 0-1.522.682-1.522 1.522v13.956c0 .841.682 1.522 1.522 1.522h6.956c.841 0 1.522-.682 1.522-1.522v-13.956c0-.841-.681-1.522-1.522-1.522z" fill="#f5c84c" data-original="#f5c84c"></path></g></g><g><g><path d="m228.788 198.199h-29.344c-1.286 0-2.328 1.042-2.328 2.328v36.344c0 1.286 1.042 2.328 2.328 2.328h29.344c1.286 0 2.328-1.042 2.328-2.328v-36.344c0-1.286-1.043-2.328-2.328-2.328z" fill="#5290db" data-original="#5290db"></path></g></g><g><g><path d="m197.116 211.699h34v14h-34z" fill="#3a70bf" data-original="#3a70bf"></path></g></g><g><g><g><path d="m214.653 21.866c-20.568 0-37.301 16.733-37.301 37.301s16.733 37.301 37.301 37.301 37.301-16.733 37.301-37.301-16.733-37.301-37.301-37.301zm0 69.602c-17.811 0-32.301-14.49-32.301-32.301s14.49-32.301 32.301-32.301 32.301 14.49 32.301 32.301-14.49 32.301-32.301 32.301z" fill="#000000" data-original="#000000" class=""></path></g></g></g><g><g><g><path d="m214.116 101.632c-20.568 0-37.301 16.733-37.301 37.301s16.733 37.301 37.301 37.301 37.301-16.733 37.301-37.301-16.733-37.301-37.301-37.301zm0 69.602c-17.811 0-32.301-14.49-32.301-32.301s14.49-32.301 32.301-32.301 32.301 14.49 32.301 32.301-14.49 32.301-32.301 32.301z" fill="#000000" data-original="#000000" class=""></path></g></g></g><g><g><path d="m231.115 66.146h-13.955c-1.381 0-2.5 1.119-2.5 2.5s1.119 2.5 2.5 2.5h13.956c1.381 0 2.5-1.119 2.5-2.5s-1.12-2.5-2.501-2.5z" fill="#000000" data-original="#000000" class=""></path></g></g><g><g><path d="m231.115 57.646h-13.955c-1.381 0-2.5 1.119-2.5 2.5s1.119 2.5 2.5 2.5h13.956c1.381 0 2.5-1.119 2.5-2.5s-1.12-2.5-2.501-2.5z" fill="#000000" data-original="#000000" class=""></path></g></g><g><g><path d="m231.115 74.646h-13.955c-1.381 0-2.5 1.119-2.5 2.5s1.119 2.5 2.5 2.5h13.956c1.381 0 2.5-1.119 2.5-2.5s-1.12-2.5-2.501-2.5z" fill="#000000" data-original="#000000" class=""></path></g></g><g><g><path d="m235.021 137.046-8.306-8.307c-.976-.977-2.56-.977-3.535 0-.977.976-.977 2.559 0 3.535l6.538 6.539-6.538 6.539c-.977.976-.977 2.559 0 3.535.488.488 1.128.732 1.768.732s1.28-.244 1.768-.732l8.306-8.306c.976-.976.976-2.559-.001-3.535z" fill="#000000" data-original="#000000" class=""></path></g></g><g><g><path d="m198.556 138.813 6.539-6.539c.977-.976.977-2.559 0-3.535-.976-.977-2.56-.977-3.535 0l-8.307 8.307c-.469.469-.732 1.104-.732 1.768s.263 1.299.732 1.768l8.307 8.306c.488.488 1.128.732 1.768.732s1.28-.244 1.768-.732c.977-.976.977-2.559 0-3.536z" fill="#000000" data-original="#000000" class=""></path></g></g><g><g><path d="m217.774 126.344c-1.329-.389-2.714.375-3.1 1.7l-5.874 20.138c-.387 1.326.375 2.713 1.7 3.1.234.068.47.101.701.101 1.083 0 2.081-.708 2.399-1.8l5.874-20.138c.387-1.326-.374-2.714-1.7-3.101z" fill="#000000" data-original="#000000" class=""></path></g></g><g><g><g><path d="m214.116 181.398c-20.568 0-37.301 16.733-37.301 37.301s16.733 37.301 37.301 37.301 37.301-16.733 37.301-37.301-16.733-37.301-37.301-37.301zm0 69.602c-17.811 0-32.301-14.49-32.301-32.301s14.49-32.301 32.301-32.301 32.301 14.49 32.301 32.301-14.49 32.301-32.301 32.301z" fill="#000000" data-original="#000000" class=""></path></g></g></g><g><g><path d="m176.298 111.21c-3.157-.561-5.613-3.017-6.245-6.104 0-.14-.281-.14-.281 0-.632 3.087-3.087 5.543-6.245 6.104-.14 0-.14.211 0 .281 3.157.561 5.613 3.017 6.245 6.104 0 .14.281.14.281 0 .631-3.087 3.087-5.543 6.245-6.104.141-.071.141-.281 0-.281z" fill="#87d147" data-original="#87d147"></path></g></g><g><g><path d="m128.488 0c-1.878 0-3.4 1.522-3.4 3.4s1.522 3.4 3.4 3.4 3.4-1.522 3.4-3.4-1.522-3.4-3.4-3.4z" fill="#fc657e" data-original="#fc657e"></path></g></g><g><g><path d="m157.488 24.397c-4.5-.8-8-4.3-8.9-8.7 0-.2-.4-.2-.4 0-.9 4.4-4.4 7.9-8.9 8.7-.2 0-.2.3 0 .4 4.5.8 8 4.3 8.9 8.7 0 .2.4.2.4 0 .9-4.4 4.4-7.9 8.9-8.7.2-.1.2-.4 0-.4z" fill="#f5c84c" data-original="#f5c84c"></path></g></g><g><g><path d="m230.125 209.199h-31.875c-1.381 0-2.5 1.119-2.5 2.5s1.119 2.5 2.5 2.5h31.875c1.381 0 2.5-1.119 2.5-2.5s-1.119-2.5-2.5-2.5z" fill="#000000" data-original="#000000" class=""></path></g></g><g><g><path d="m230.125 223.199h-31.937c-1.381 0-2.5 1.119-2.5 2.5s1.119 2.5 2.5 2.5h31.937c1.381 0 2.5-1.119 2.5-2.5s-1.12-2.5-2.5-2.5z" fill="#000000" data-original="#000000" class=""></path></g></g><g><g><g><path d="m231.115 38.646h-31.955c-2.218 0-4.022 1.805-4.022 4.022v6.956c0 2.218 1.805 4.022 4.022 4.022h31.956c2.218 0 4.022-1.804 4.022-4.022v-6.956c-.001-2.217-1.805-4.022-4.023-4.022zm-.978 10h-30v-5h30z" fill="#000000" data-original="#000000" class=""></path></g></g></g><g><g><g><path d="m206.115 57.646h-6.956c-2.218 0-4.022 1.805-4.022 4.022v13.956c0 2.218 1.805 4.022 4.022 4.022h6.956c2.218 0 4.022-1.804 4.022-4.022v-13.955c0-2.218-1.804-4.023-4.022-4.023zm-.978 17h-5v-12h5z" fill="#000000" data-original="#000000" class=""></path></g></g></g><g><g><g><path d="m228.788 195.699h-29.344c-2.662 0-4.828 2.166-4.828 4.828v36.344c0 2.662 2.166 4.828 4.828 4.828h29.344c2.662 0 4.828-2.166 4.828-4.828v-36.344c0-2.662-2.166-4.828-4.828-4.828zm-.172 41h-29v-36h29z" fill="#000000" data-original="#000000" class=""></path></g></g></g><g><g><path d="m159.544 173.902c-.347-6.223-4.699-11.497-10.743-13.019l-6.903-1.743c.671.775 1.091 1.774 1.091 2.879v74.363c0 2.443-1.98 4.423-4.423 4.423h6.616c1.724 0 3.122 1.398 3.122 3.122 0 5.286-4.286 9.572-9.572 9.572h19.604c2.273 0 4.079-1.91 3.953-4.179z" fill="#3a70bf" data-original="#3a70bf"></path></g></g><g><g><path d="m26.629 243.928c0-1.724 1.398-3.122 3.122-3.122h6.616c-2.443 0-4.423-1.98-4.423-4.423v-74.363c0-1.106.42-2.104 1.091-2.879l-6.903 1.743c-6.044 1.521-10.396 6.796-10.743 13.019l-2.744 75.418c-.127 2.269 1.68 4.179 3.953 4.179h19.604c-5.288 0-9.573-4.286-9.573-9.572z" fill="#3a70bf" data-original="#3a70bf"></path></g></g><g><g><path d="m138.565 157.598h-102.198c-2.443 0-4.423 1.98-4.423 4.423v74.363c0 2.443 1.98 4.423 4.423 4.423h102.198c2.443 0 4.423-1.98 4.423-4.423v-74.363c0-2.443-1.98-4.423-4.423-4.423z" fill="#edf4fc" data-original="#edf4fc"></path></g></g><g><g><path d="m145.181 240.807h-115.431c-1.724 0-3.122 1.398-3.122 3.122 0 5.286 4.286 9.572 9.572 9.572h102.53c5.286 0 9.572-4.286 9.572-9.572.001-1.725-1.397-3.122-3.121-3.122z" fill="#c7d7e5" data-original="#c7d7e5"></path></g></g><g><g><path d="m124.426 71.985c-.759 0-1.502.064-2.229.177v26.294c0 .783-.036 1.558-.088 2.329.756.122 1.526.202 2.316.202 8.009 0 14.501-6.492 14.501-14.501.001-8.009-6.491-14.501-14.5-14.501z" fill="#f5d9a2" data-original="#f9d0b4" class=""></path></g></g><g><g><path d="m120.061 67.75c-3.514-.814-7.782-2.85-12.673-7.294-.967-.879-2.459-.807-3.31.186-5.29 6.174-24.047 24.906-51.344 17.13v20.684c0 19.102 15.629 34.732 34.732 34.732 19.102 0 34.732-15.629 34.732-34.732v-28.06c-.001-1.276-.894-2.358-2.137-2.646z" fill="#f5d9a2" data-original="#f9d0b4" class=""></path></g></g><g><g><path d="m52.734 98.455v-20.684c-2.385-.679-4.834-1.559-7.346-2.668-1.62-.715-3.511-.386-4.803.825-2.817 2.641-4.581 6.39-4.581 10.557 0 8.008 6.492 14.501 14.501 14.501.79 0 1.56-.08 2.316-.202-.051-.77-.087-1.545-.087-2.329z" fill="#f5d9a2" data-original="#f9d0b4" class=""></path></g></g><g><g><path d="m87.466 20.526c-25.976 0-47.229 21.253-47.229 47.229v8.535c.118-.119.226-.246.348-.361 1.291-1.211 3.183-1.54 4.803-.825 2.512 1.109 4.961 1.988 7.346 2.668 27.297 7.776 46.055-10.956 51.344-17.13.85-.992 2.342-1.065 3.309-.186 4.892 4.445 9.159 6.48 12.673 7.294 1.243.288 2.136 1.37 2.136 2.646v1.766c.727-.113 1.47-.177 2.229-.177 4.012 0 7.643 1.63 10.268 4.263v-8.494c.002-25.975-21.251-47.228-47.227-47.228z" fill="#000000" data-original="#5b5d60" class=""></path></g></g><g><g><path d="m136.114 120.456c6.634-10.404 3.501-20.533.574-26.254-2.568 4.072-7.093 6.786-12.263 6.786-.79 0-1.56-.08-2.316-.202-.816 12.152-7.945 22.647-18.124 28.194v10.533c0 3.372 1.769 6.458 4.604 8.204 1.136.7-.306-.122 9.369 4.691 1.302.642 3.02 1.321 4.346 1.737.263.082.529.154.794.229 5.111-1.87 9.621-4.841 12.542-9.466 5.356-8.48 2.23-16.696.259-20.374-.692-1.293-.573-2.842.215-4.078z" fill="#000000" data-original="#5b5d60" class=""></path></g></g><g><g><path d="m52.822 100.785c-.756.122-1.526.202-2.316.202-5.17 0-9.695-2.714-12.262-6.786-2.926 5.721-6.06 15.851.574 26.254.788 1.236.908 2.785.215 4.077-1.971 3.678-5.097 11.894.259 20.374 2.921 4.625 7.43 7.595 12.542 9.466.265-.075.531-.147.794-.229 1.325-.415 3.044-1.095 4.346-1.737 10.303-5.125 8.318-4.043 9.369-4.691 2.834-1.746 4.604-4.832 4.604-8.204v-10.533c-10.18-5.547-17.31-16.041-18.125-28.193z" fill="#000000" data-original="#5b5d60" class=""></path></g></g><g><g><path d="m26.629 243.928c0-1.724 1.398-3.122 3.122-3.122h6.616c-2.443 0-4.423-1.98-4.423-4.423v-29.14l-17.612-4.309-1.688 46.386c-.127 2.269 1.68 4.179 3.953 4.179h19.604c-5.287.001-9.572-4.285-9.572-9.571z" fill="#f5d9a2" data-original="#f9d0b4" class=""></path></g></g><g><g><path d="m160.6 202.935-17.612 4.309v29.14c0 2.443-1.98 4.423-4.423 4.423h6.616c1.724 0 3.122 1.398 3.122 3.122 0 5.286-4.286 9.572-9.572 9.572h19.604c2.273 0 4.079-1.91 3.953-4.179z" fill="#f5d9a2" data-original="#f9d0b4" class=""></path></g></g><g><g><path d="m68.153 146.273c-.746.758-1.607 1.413-2.593 1.899l-8.587 4.234c-1.723.85-3.526 1.523-5.377 2.032l-9.371 3.159h34.13z" fill="#5290db" data-original="#5290db"></path></g></g><g><g><path d="m123.336 154.438c-1.852-.509-3.654-1.183-5.377-2.032l-8.587-4.234c-.986-.486-1.847-1.141-2.593-1.899l-8.201 11.325h34.13z" fill="#5290db" data-original="#5290db"></path></g></g><g><g><path d="m103.986 139.512v-10.533c-4.92 2.682-10.551 4.208-16.52 4.208-5.97 0-11.6-1.526-16.52-4.208v10.533c0 2.578-1.043 4.984-2.793 6.761l8.201 11.325h22.224l8.201-11.325c-1.75-1.777-2.793-4.184-2.793-6.761z" fill="#f5d9a2" data-original="#f9d0b4" class=""></path></g></g><g><g><path d="m164.787 249.23-2.747-75.467c-.41-7.355-5.485-13.505-12.627-15.303l-6.517-1.645c-1.338-.336-2.698.474-3.036 1.812-.338 1.339.473 2.698 1.812 3.036l6.519 1.646c5.011 1.261 8.57 5.575 8.855 10.685l2.747 75.467c.03.545-.236.913-.397 1.083s-.514.457-1.06.457h-19.604c-1.381 0-2.5 1.119-2.5 2.5s1.119 2.5 2.5 2.5h19.604c1.768 0 3.478-.737 4.693-2.021 1.213-1.285 1.853-3.034 1.758-4.75z" fill="#000000" data-original="#000000" class=""></path></g></g><g><g><path d="m36.201 251h-19.604c-.547 0-.899-.286-1.06-.457-.162-.17-.427-.538-.395-1.132l2.742-75.37c.288-5.159 3.847-9.472 8.859-10.734l6.63-1.674c1.339-.338 2.15-1.697 1.812-3.036-.337-1.338-1.697-2.148-3.036-1.812l-6.629 1.673c-7.144 1.798-12.219 7.949-12.631 15.352l-2.742 75.37c-.099 1.765.542 3.513 1.756 4.797 1.215 1.285 2.925 2.021 4.693 2.021h19.604c1.381 0 2.5-1.119 2.5-2.5s-1.118-2.498-2.499-2.498z" fill="#000000" data-original="#000000" class=""></path></g></g><g><g><path d="m99.155 109.021c-1.058-.887-2.635-.748-3.522.31-1.799 2.146-4.852 3.427-8.167 3.427s-6.369-1.281-8.167-3.427c-.887-1.057-2.463-1.197-3.522-.31-1.058.887-1.197 2.464-.31 3.522 2.737 3.265 7.223 5.215 11.999 5.215s9.261-1.949 11.999-5.215c.887-1.059.748-2.635-.31-3.522z" fill="#000000" data-original="#000000" class=""></path></g></g><g><g><circle cx="102.576" cy="90.5" r="4.5" fill="#000000" data-original="#000000" class=""></circle></g></g><g><g><circle cx="72.355" cy="90.5" r="4.5" fill="#000000" data-original="#000000" class=""></circle></g></g><g><g><path d="m94.312 200h-13.956c-1.381 0-2.5 1.119-2.5 2.5s1.119 2.5 2.5 2.5h13.956c1.381 0 2.5-1.119 2.5-2.5s-1.12-2.5-2.5-2.5z" fill="#000000" data-original="#000000" class=""></path></g></g><g><g><g><path d="m138.565 155.098h-102.198c-3.817 0-6.923 3.106-6.923 6.923v74.362c0 3.817 3.106 6.923 6.923 6.923h102.198c3.817 0 6.923-3.106 6.923-6.923v-74.362c0-3.817-3.106-6.923-6.923-6.923zm1.923 81.285c0 1.061-.863 1.923-1.923 1.923h-102.198c-1.061 0-1.923-.863-1.923-1.923v-74.362c0-1.061.863-1.923 1.923-1.923h102.198c1.061 0 1.923.863 1.923 1.923z" fill="#000000" data-original="#000000" class=""></path></g></g></g><g><g><g><path d="m145.181 238.307h-115.431c-3.1 0-5.622 2.522-5.622 5.622 0 6.656 5.416 12.072 12.072 12.072h102.53c6.656 0 12.072-5.416 12.072-12.072.001-3.1-2.521-5.622-5.621-5.622zm-6.45 12.693h-102.53c-3.899 0-7.072-3.172-7.072-7.072 0-.343.279-.622.622-.622h115.431c.343 0 .622.279.622.622-.001 3.9-3.174 7.072-7.073 7.072z" fill="#000000" data-original="#000000" class=""></path></g></g></g><g><g><path d="m18.246 117.453h-2.3v-2.3c0-1.7-1.4-3.2-3.2-3.2s-3.2 1.4-3.2 3.2v2.3h-2.3c-1.7 0-3.2 1.4-3.2 3.2s1.4 3.2 3.2 3.2h2.3v2.3c0 1.7 1.4 3.2 3.2 3.2s3.2-1.4 3.2-3.2v-2.3h2.3c1.7 0 3.2-1.4 3.2-3.2s-1.4-3.2-3.2-3.2z" fill="#70d6f9" data-original="#70d6f9"></path></g></g><g><g><path d="m22.488 140.353c-1.878 0-3.4 1.522-3.4 3.4s1.522 3.4 3.4 3.4 3.4-1.522 3.4-3.4c0-1.877-1.522-3.4-3.4-3.4z" fill="#f5c84c" data-original="#f5c84c"></path></g></g><g><g><path d="m124.426 69.485c-.518 0-1.048.025-1.574.076-1.375.131-2.383 1.352-2.251 2.726.131 1.375 1.354 2.389 2.726 2.251.362-.035.729-.053 1.1-.053 6.617 0 12 5.383 12 12s-5.383 12.001-12 12.001c-.361 0-.731-.021-1.132-.064-1.385-.149-2.605.847-2.752 2.219-.147 1.373.847 2.605 2.219 2.752.58.062 1.125.092 1.666.092 9.374 0 17-7.626 17-17.001-.001-9.372-7.628-16.999-17.002-16.999z" fill="#000000" data-original="#000000" class=""></path></g></g><g><g><g><path d="m120.625 65.314c-3.717-.861-7.605-3.119-11.557-6.709-.965-.877-2.261-1.332-3.556-1.253-1.301.082-2.485.672-3.333 1.663-4.886 5.703-22.844 23.736-48.761 16.352-.755-.215-1.565-.063-2.191.409s-.994 1.211-.994 1.995v20.684c0 20.53 16.702 37.232 37.232 37.232 20.529 0 37.231-16.702 37.231-37.232v-28.06c.001-2.436-1.673-4.525-4.071-5.081zm-.928 33.141c0 17.773-14.459 32.232-32.231 32.232-17.773 0-32.232-14.459-32.232-32.232v-17.476c26.819 5.88 45.249-12.354 50.606-18.552 4.547 4.103 9.142 6.712 13.656 7.759.1.023.201.097.201.21z" fill="#000000" data-original="#000000" class=""></path></g></g></g><g><g><path d="m53.418 75.367c-2.327-.663-4.689-1.521-7.02-2.55-2.541-1.121-5.492-.615-7.523 1.288-3.414 3.2-5.371 7.713-5.371 12.381 0 9.375 7.626 17.001 17.001 17.001.473 0 .939-.023 1.401-.066 1.375-.127 2.386-1.344 2.259-2.719s-1.351-2.388-2.719-2.259c-.31.028-.624.045-.941.045-6.617 0-12.001-5.384-12.001-12.001 0-3.34 1.346-6.441 3.791-8.733.564-.53 1.381-.672 2.083-.361 2.542 1.122 5.123 2.059 7.671 2.785 1.324.379 2.711-.391 3.089-1.72.379-1.33-.391-2.713-1.72-3.091z" fill="#000000" data-original="#000000" class=""></path></g></g><g><g><path d="m87.466 18.026c-27.421 0-49.729 22.308-49.729 49.729v8.327c0 1.381 1.119 2.5 2.5 2.5s2.5-1.119 2.5-2.5v-8.327c0-24.664 20.065-44.729 44.729-44.729s44.729 20.065 44.729 44.729v7.995c0 1.381 1.119 2.5 2.5 2.5s2.5-1.119 2.5-2.5v-7.995c-.001-27.421-22.309-49.729-49.729-49.729z" fill="#000000" data-original="#000000" class=""></path></g></g><g><g><path d="m138.222 121.8c7.314-11.471 3.702-22.673.897-28.33-.613-1.237-2.112-1.742-3.35-1.129-1.237.613-1.743 2.113-1.129 3.35 2.854 5.756 5.06 14.491-.634 23.42-1.29 2.023-1.409 4.553-.311 6.603 1.905 3.553 4.416 10.598-.169 17.857-2.301 3.643-5.978 6.442-10.927 8.319-1.291.489-1.941 1.933-1.451 3.224.379 1 1.329 1.614 2.338 1.614.294 0 .594-.052.886-.163 5.987-2.27 10.489-5.743 13.382-10.324 6.16-9.754 2.296-19.257.349-22.889-.249-.464-.205-1.044.119-1.552z" fill="#000000" data-original="#000000" class=""></path></g></g><g><g><path d="m51.968 151.75c-4.765-1.874-8.319-4.625-10.563-8.178-4.585-7.259-2.074-14.304-.169-17.858 1.098-2.049.979-4.579-.311-6.602-5.683-8.912-3.493-17.633-.654-23.379.612-1.238.104-2.737-1.134-3.349-1.238-.614-2.737-.104-3.349 1.134-2.79 5.648-6.38 16.833.921 28.282.324.508.369 1.088.12 1.552-1.947 3.633-5.812 13.136.349 22.89 2.824 4.472 7.185 7.891 12.961 10.162.3.118.609.174.914.174.998 0 1.94-.601 2.327-1.586.506-1.286-.127-2.737-1.412-3.242z" fill="#000000" data-original="#000000" class=""></path></g></g><g><g><path d="m31.891 204.657-16.391-4.01c-1.342-.329-2.695.493-3.022 1.834-.328 1.341.493 2.694 1.834 3.022l16.391 4.01c.2.049.399.072.596.072 1.125 0 2.147-.765 2.426-1.906.328-1.341-.494-2.694-1.834-3.022z" fill="#000000" data-original="#000000" class=""></path></g></g><g><g><path d="m162.236 202.535c-.328-1.342-1.682-2.163-3.022-1.834l-16.205 3.964c-1.341.328-2.162 1.681-1.834 3.022.279 1.142 1.301 1.906 2.426 1.906.197 0 .396-.023.596-.072l16.205-3.964c1.341-.328 2.162-1.681 1.834-3.022z" fill="#000000" data-original="#000000" class=""></path></g></g><g><g><path d="m77.896 155.465-7.719-10.659c-.432-.596-1.103-.971-1.836-1.026-.736-.053-1.454.215-1.97.739-.591.601-1.236 1.075-1.917 1.411l-8.587 4.234c-1.542.76-3.203 1.387-4.935 1.864-.045.013-.091.026-.136.042l-9.087 3.063c-1.308.441-2.011 1.859-1.57 3.168.352 1.043 1.325 1.702 2.369 1.702.265 0 .534-.042.799-.131l9.021-3.042c2.012-.558 3.946-1.292 5.75-2.181l8.586-4.234c.34-.167.672-.353.998-.556l6.184 8.54c.811 1.119 2.374 1.368 3.491.559 1.119-.812 1.369-2.375.559-3.493z" fill="#000000" data-original="#000000" class=""></path></g></g><g><g><path d="m133.304 155.161-9.169-3.091c-.045-.015-.09-.029-.136-.042-1.732-.477-3.393-1.104-4.935-1.864l-8.587-4.235c-.681-.335-1.326-.81-1.917-1.41-.516-.524-1.235-.796-1.97-.739-.733.055-1.405.431-1.836 1.026l-8.013 11.066c-.81 1.118-.56 2.681.559 3.491 1.118.81 2.682.56 3.491-.559l6.479-8.947c.325.203.658.388.998.556l8.587 4.234c1.804.89 3.739 1.624 5.75 2.181l9.103 3.069c.265.089.534.131.799.131 1.043 0 2.017-.658 2.369-1.702.439-1.306-.264-2.724-1.572-3.165z" fill="#000000" data-original="#000000" class=""></path></g></g><g><g><path d="m70.946 127.063c-1.381 0-2.5 1.119-2.5 2.5v9.949c0 1.871-.737 3.648-2.074 5.007-.969.984-.957 2.566.027 3.535.487.479 1.121.719 1.754.719.646 0 1.292-.249 1.781-.746 2.265-2.3 3.512-5.324 3.512-8.515v-9.949c0-1.381-1.119-2.5-2.5-2.5z" fill="#000000" data-original="#000000" class=""></path></g></g><g><g><path d="m108.56 144.519c-1.337-1.359-2.074-3.137-2.074-5.007v-9.887c0-1.381-1.119-2.5-2.5-2.5s-2.5 1.119-2.5 2.5v9.887c0 3.191 1.247 6.215 3.511 8.515.489.497 1.135.746 1.782.746.633 0 1.267-.239 1.754-.718.983-.969.995-2.552.027-3.536z" fill="#000000" data-original="#000000" class=""></path></g></g></g></g></g></svg>