<svg id="Layer_1" height="512" viewBox="0 0 66 66" width="512" xmlns="http://www.w3.org/2000/svg"><g id="XMLID_21_"><path id="XMLID_235_" d="m56.8 6.2h-2.1v-2.1c0-1.7-1.4-3.1-3.1-3.1h-42.4c-1.7 0-3.1 1.4-3.1 3.1v52.6c0 1.7 1.4 3.1 3.1 3.1h2.1v2.1c0 1.7 1.4 3.1 3.1 3.1h42.4c1.7 0 3.1-1.4 3.1-3.1v-52.6c0-1.7-1.4-3.1-3.1-3.1zm-48.7 50.5v-52.6c0-.6.5-1.1 1.1-1.1h42.4c.6 0 1.1.5 1.1 1.1v52.6c0 .6-.5 1.1-1.1 1.1h-42.4c-.6 0-1.1-.5-1.1-1.1zm49.8 5.2c0 .6-.5 1.1-1.1 1.1h-42.4c-.6 0-1.1-.5-1.1-1.1v-2.1h38.3c1.7 0 3.1-1.4 3.1-3.1v-48.5h2.1c.6 0 1.1.5 1.1 1.1z"/><path id="XMLID_293_" d="m47.4 32.5h-34c-.6 0-1 .4-1 1s.4 1 1 1h34.1c.6 0 1-.4 1-1-.1-.5-.5-1-1.1-1z"/><path id="XMLID_294_" d="m47.4 13.6h-34c-.6 0-1 .4-1 1s.4 1 1 1h34.1c.6 0 1-.4 1-1-.1-.6-.5-1-1.1-1z"/><path id="XMLID_296_" d="m47.4 38.9h-34c-.6 0-1 .4-1 1s.4 1 1 1h34.1c.6 0 1-.4 1-1s-.5-1-1.1-1z"/><path id="XMLID_299_" d="m47.4 19.9h-34c-.6 0-1 .4-1 1s.4 1 1 1h34.1c.6 0 1-.4 1-1-.1-.5-.5-1-1.1-1z"/><path id="XMLID_300_" d="m47.4 45.2h-34c-.6 0-1 .4-1 1s.4 1 1 1h34.1c.6 0 1-.4 1-1s-.5-1-1.1-1z"/><path id="XMLID_301_" d="m47.4 26.2h-34c-.6 0-1 .4-1 1s.4 1 1 1h34.1c.6 0 1-.4 1-1s-.5-1-1.1-1z"/><path id="XMLID_302_" d="m47.4 51.5h-34c-.6 0-1 .4-1 1s.4 1 1 1h34.1c.6 0 1-.4 1-1s-.5-1-1.1-1z"/><path id="XMLID_305_" d="m13.4 9.3h23.3c.6 0 1-.4 1-1s-.4-1-1-1h-23.3c-.6 0-1 .4-1 1 0 .5.4 1 1 1z"/></g></svg>