<svg xmlns="http://www.w3.org/2000/svg" version="1.1" xmlns:xlink="http://www.w3.org/1999/xlink" xmlns:svgjs="http://svgjs.com/svgjs" width="512" height="512" x="0" y="0" viewBox="0 0 256 256" style="enable-background:new 0 0 512 512" xml:space="preserve" class=""><g><g id="Layer_1"><g><g><g><g><path d="m101.851 245.157c0-1.877 1.521-3.398 3.398-3.398h9.965c-3.045 0-5.536-2.491-5.536-5.536v-72.093c0-3.045 2.491-5.536 5.536-5.536h4.055l8.164-8.583c-2.343-2.368-3.722-5.597-3.722-9.04v-6.335c-5.268 2.868-11.296 4.501-17.686 4.501-5.959 0-11.597-1.427-16.604-3.945v5.778c0 3.443-1.379 6.671-3.722 9.04l14.659 15.411c.77.81.78 2.078.022 2.899l-8.157 8.837c-.936 1.014-2.552.97-3.431-.094l-15.055-18.223c-.484-.586-.551-1.382-.23-2.026l-1.471.725-28.902 7.275c-6.233 1.569-10.721 7.008-11.078 13.425l-4.115 70.951c-.13 2.34 1.732 4.31 4.076 4.31h78.177c-4.608 0-8.343-3.735-8.343-8.343z" fill="#3a70bf" data-original="#3a70bf"></path></g></g></g><g><g><path d="m214.703 158.594h-99.488c-3.045 0-5.536 2.491-5.536 5.536v72.093c0 3.045 2.491 5.536 5.536 5.536h99.488c3.045 0 5.536-2.491 5.536-5.536v-72.093c0-3.045-2.492-5.536-5.536-5.536z" fill="#edf4fc" data-original="#edf4fc"></path></g></g><g><g><path d="m224.668 241.759h-119.419c-1.877 0-3.398 1.521-3.398 3.398 0 4.607 3.735 8.343 8.343 8.343h109.53c4.607 0 8.343-3.735 8.343-8.343-.001-1.876-1.523-3.398-3.399-3.398z" fill="#c7d7e5" data-original="#c7d7e5"></path></g></g><g><g><path d="m111.598 56.772c-13.593 17.094-33.644 14.681-40.386 13.27-1.225-.256-2.401.667-2.402 1.919v.025 29.936c0 20.468 16.747 37.215 37.215 37.215 20.468 0 37.215-16.747 37.215-37.215v-33.15c0-.194-.002-.388-.006-.582-.021-1.055-.866-1.925-1.921-1.956-15.46-.453-23.606-6.581-26.736-9.649-.855-.838-2.234-.749-2.979.187z" fill="#b98059" data-original="#f9d0b4" class=""></path></g></g><g><g><g><path d="m66.422 73.561c.813 0 1.609.069 2.388.189v-1.763c0-.008 0-.017 0-.025.001-1.252 1.177-2.175 2.402-1.919 6.742 1.411 26.794 3.823 40.386-13.27.745-.937 2.124-1.025 2.978-.187 3.13 3.068 11.276 9.196 26.736 9.649 1.055.031 1.9.901 1.921 1.956.004.194.006.388.006.582v4.978c.779-.121 1.575-.189 2.388-.189 4.188 0 7.982 1.665 10.777 4.36v-27.949c0-11.692-9.566-21.258-21.258-21.258-3.966 0-7.673 1.121-10.859 3.031-3.722-6.211-10.502-10.405-18.23-10.405h-10.916c-21.127 0-38.413 17.286-38.413 38.413v17.212c2.658-2.126 6.024-3.405 9.694-3.405z" fill="#020202" data-original="#5b5d60" class=""></path></g></g></g><g><g><path d="m145.628 73.561c-.813 0-1.609.069-2.388.189v28.173c0 .839-.038 1.67-.094 2.496.81.13 1.635.217 2.482.217 8.581 0 15.537-6.956 15.537-15.537s-6.956-15.538-15.537-15.538z" fill="#b98059" data-original="#f9d0b4" class=""></path></g></g><g><g><path d="m68.81 101.923c0-3.856 0-20.507 0-28.173-.779-.121-1.575-.189-2.388-.189-8.581 0-15.538 6.957-15.538 15.538s6.956 15.537 15.538 15.537c.847 0 1.672-.086 2.482-.217v-.001c-.056-.825-.094-1.656-.094-2.495z" fill="#b98059" data-original="#f9d0b4" class=""></path></g></g><g><g><path d="m139.561 158.594c.442-.75.316-1.724-.347-2.329l-8.134-7.427c-.753-.687-1.917-.646-2.619.092l-9.192 9.664z" fill="#5290db" data-original="#5290db"></path></g></g><g><g><path d="m73.918 156.265 8.134-7.427c.753-.687 1.917-.646 2.619.092l15.687 16.491c.77.81.78 2.078.022 2.899l-8.157 8.837c-.936 1.014-2.552.97-3.431-.094l-15.055-18.223c-.636-.769-.556-1.902.181-2.575z" fill="#5290db" data-original="#5290db"></path></g></g><g><g><path d="m100.077 168.648c1.939.315 3.923.49 5.947.49 1.233 0 2.451-.067 3.653-.188v-4.82c0-3.045 2.491-5.536 5.536-5.536h4.055l8.164-8.583c-2.343-2.368-3.722-5.597-3.722-9.04v-6.335c-5.268 2.868-11.296 4.501-17.686 4.501-5.959 0-11.597-1.427-16.604-3.945v5.778c0 3.443-1.379 6.671-3.722 9.04l14.659 15.411c.77.81.78 2.078.022 2.899z" fill="#b98059" data-original="#f9d0b4" class=""></path></g></g><g><g><path d="m106.025 171.638c-1.921 0-3.893-.15-5.86-.446-1.366-.205-2.306-1.479-2.101-2.844.206-1.366 1.478-2.308 2.844-2.101 2.69.404 5.292.498 8.003.263 1.38-.113 2.587.9 2.706 2.275s-.9 2.587-2.275 2.706c-1.117.098-2.234.147-3.317.147z" fill="#000000" data-original="#000000" class=""></path></g></g><g><g><path d="m86.001 152.194c-.607 0-1.215-.22-1.696-.664-1.014-.937-1.076-2.519-.139-3.533 1.776-1.922 2.755-4.417 2.755-7.025v-5.389c0-1.381 1.119-2.5 2.5-2.5s2.5 1.119 2.5 2.5v5.389c0 3.87-1.45 7.57-4.083 10.419-.493.533-1.164.803-1.837.803z" fill="#000000" data-original="#000000" class=""></path></g></g><g><g><path d="m127.036 152.09c-.682 0-1.362-.277-1.855-.823-2.56-2.831-3.969-6.487-3.969-10.295v-5.765c0-1.381 1.119-2.5 2.5-2.5s2.5 1.119 2.5 2.5v5.765c0 2.566.951 5.031 2.678 6.941.926 1.024.846 2.605-.178 3.531-.479.433-1.079.646-1.676.646z" fill="#000000" data-original="#000000" class=""></path></g></g><g><g><circle cx="164.958" cy="201" fill="#70d6f9" r="23.451" data-original="#70d6f9"></circle></g></g><g><g><path d="m101.851 245.119c.008-1.86 1.538-3.36 3.398-3.36h9.965c-3.045 0-5.536-2.491-5.536-5.536v-7.723h-7.612c-3.154 0-6.029 1.237-8.174 3.246-1.972 1.848-4.649 2.754-7.352 2.754h-29.601c-1.059 0-1.918-.859-1.918-1.918v-14.082h-25.301l-1.78 30.69c-.13 2.34 1.732 4.31 4.076 4.31h78.177c-4.62 0-8.363-3.756-8.342-8.381z" fill="#b98059" data-original="#f9d0b4" class=""></path></g></g><g><g><path d="m55.021 221.375c-1.381 0-2.5-1.119-2.5-2.5v-22.979c0-1.381 1.119-2.5 2.5-2.5s2.5 1.119 2.5 2.5v22.979c0 1.38-1.119 2.5-2.5 2.5z" fill="#000000" data-original="#000000" class=""></path></g></g><g><g><g><path d="m109.25 256h-77.233c-1.802 0-3.545-.75-4.783-2.06-1.238-1.309-1.89-3.09-1.79-4.889l4.115-70.957c.42-7.545 5.63-13.859 12.964-15.705l28.644-7.209.677-.334c1.239-.611 2.738-.102 3.348 1.137.611 1.238.102 2.737-1.137 3.348l-.915.451c-.158.078-.324.139-.495.182l-28.901 7.274c-5.2 1.309-8.895 5.786-9.193 11.14l-4.115 70.957c-.024.433.129.851.431 1.17s.711.495 1.15.495h77.233c1.381 0 2.5 1.119 2.5 2.5s-1.119 2.5-2.5 2.5z" fill="#000000" data-original="#000000" class=""></path></g></g></g><g><g><path d="m106.566 118.573c-4.776 0-9.262-1.95-11.999-5.215-.887-1.058-.748-2.635.31-3.522 1.06-.888 2.636-.747 3.522.31 1.798 2.146 4.852 3.427 8.167 3.427s6.369-1.281 8.167-3.426c.887-1.058 2.463-1.198 3.522-.31 1.058.887 1.197 2.464.31 3.522-2.737 3.265-7.223 5.214-11.999 5.214z" fill="#000000" data-original="#000000" class=""></path></g></g><g><g><circle cx="123.355" cy="90.816" r="4" fill="#000000" data-original="#000000" class=""></circle></g></g><g><g><circle cx="89.776" cy="90.816" r="4" fill="#000000" data-original="#000000" class=""></circle></g></g><g><g><path d="m131.542 106.014h-9.237c-7.458 0-13.524-6.067-13.524-13.524v-6.39c0-5.577 4.538-10.114 10.115-10.114h16.056c5.577 0 10.115 4.537 10.115 10.114v6.39c-.001 7.457-6.068 13.524-13.525 13.524zm-12.647-25.028c-2.82 0-5.115 2.294-5.115 5.114v6.39c0 4.7 3.824 8.524 8.524 8.524h9.237c4.7 0 8.524-3.824 8.524-8.524v-6.39c0-2.82-2.294-5.114-5.115-5.114z" fill="#000000" data-original="#000000" class=""></path></g></g><g><g><path d="m89.827 106.014h-9.237c-7.458 0-13.524-6.067-13.524-13.524v-6.39c0-5.577 4.538-10.114 10.115-10.114h16.056c5.577 0 10.115 4.537 10.115 10.114v6.39c0 7.457-6.067 13.524-13.525 13.524zm-12.646-25.028c-2.82 0-5.115 2.294-5.115 5.114v6.39c0 4.7 3.824 8.524 8.524 8.524h9.237c4.7 0 8.524-3.824 8.524-8.524v-6.39c0-2.82-2.294-5.114-5.115-5.114z" fill="#000000" data-original="#000000" class=""></path></g></g><g><g><path d="m110.237 89.924h-8.343c-1.381 0-2.5-1.119-2.5-2.5s1.119-2.5 2.5-2.5h8.343c1.381 0 2.5 1.119 2.5 2.5s-1.119 2.5-2.5 2.5z" fill="#000000" data-original="#000000" class=""></path></g></g><g><g><path d="m214.869 244.256c-1.346 0-2.457-1.07-2.498-2.425-.042-1.38 1.043-2.533 2.424-2.574 1.623-.049 2.943-1.41 2.943-3.034v-72.093c0-1.674-1.362-3.036-3.036-3.036h-99.488c-1.674 0-3.036 1.362-3.036 3.036v72.093c0 1.625 1.32 2.985 2.943 3.034 1.38.042 2.465 1.194 2.424 2.574-.042 1.38-1.176 2.455-2.574 2.424-4.297-.129-7.793-3.733-7.793-8.032v-72.093c0-4.431 3.605-8.036 8.036-8.036h99.488c4.431 0 8.036 3.605 8.036 8.036v72.093c0 4.299-3.496 7.903-7.793 8.032-.025.001-.05.001-.076.001z" fill="#000000" data-original="#000000" class=""></path></g></g><g><g><path d="m219.723 256h-109.53c-5.979 0-10.842-4.864-10.842-10.843 0-3.252 2.646-5.898 5.898-5.898h119.418c3.252 0 5.898 2.646 5.898 5.898.001 5.979-4.863 10.843-10.842 10.843zm-114.473-11.741c-.496 0-.898.403-.898.898 0 3.222 2.621 5.843 5.842 5.843h109.53c3.222 0 5.843-2.621 5.843-5.843 0-.495-.403-.898-.898-.898z" fill="#000000" data-original="#000000" class=""></path></g></g><g><g><g><path d="m155.331 210.271c-.688 0-1.373-.282-1.867-.836l-5.968-6.692c-.846-.948-.846-2.38 0-3.328l5.968-6.692c.918-1.03 2.5-1.121 3.53-.202s1.121 2.5.202 3.53l-4.484 5.028 4.484 5.028c.919 1.03.829 2.611-.202 3.53-.477.426-1.072.634-1.663.634z" fill="#000000" data-original="#000000" class=""></path></g></g><g><g><path d="m174.586 210.271c-.592 0-1.187-.209-1.663-.634-1.03-.919-1.121-2.5-.202-3.53l4.484-5.028-4.484-5.028c-.919-1.03-.829-2.611.202-3.53 1.03-.92 2.61-.828 3.53.202l5.969 6.692c.846.948.846 2.38 0 3.328l-5.969 6.692c-.494.554-1.179.836-1.867.836z" fill="#000000" data-original="#000000" class=""></path></g></g><g><g><path d="m162.041 210.042c-.335 0-.675-.067-1.002-.21-1.265-.554-1.84-2.029-1.287-3.293l5.833-13.313c.554-1.264 2.028-1.841 3.293-1.287s1.84 2.029 1.287 3.293l-5.833 13.313c-.411.937-1.329 1.497-2.291 1.497z" fill="#000000" data-original="#000000" class=""></path></g></g></g><g><g><path d="m63.822 131.331c-4.498-.838-8.043-4.31-8.898-8.716-.043-.221-.352-.221-.395 0-.855 4.406-4.4 7.879-8.898 8.716-.226.042-.226.345 0 .387 4.498.838 8.043 4.31 8.898 8.717.043.221.352.221.395 0 .855-4.406 4.4-7.879 8.898-8.717.225-.043.225-.345 0-.387z" fill="#f5c84c" data-original="#f5c84c" class=""></path></g></g><g><g><path d="m173.515 112.101c-2.862-.533-5.118-2.743-5.663-5.547-.027-.141-.224-.141-.251 0-.544 2.804-2.8 5.014-5.663 5.547-.144.027-.144.219 0 .246 2.862.533 5.118 2.743 5.663 5.547.027.141.224.141.251 0 .544-2.804 2.8-5.014 5.663-5.547.143-.027.143-.219 0-.246z" fill="#fc657e" data-original="#fc657e"></path></g></g><g><g><path d="m169.246 23.75h2.33v-2.33c0-1.744 1.413-3.157 3.157-3.157s3.157 1.413 3.157 3.157v2.33h2.329c1.744 0 3.157 1.413 3.157 3.157s-1.413 3.157-3.157 3.157h-2.329v2.33c0 1.744-1.413 3.157-3.157 3.157s-3.157-1.413-3.157-3.157v-2.33h-2.33c-1.744 0-3.157-1.413-3.157-3.157s1.413-3.157 3.157-3.157z" fill="#70d6f9" data-original="#70d6f9"></path></g></g><g><g><circle cx="31.755" cy="152.825" fill="#fc657e" r="3.377" data-original="#fc657e"></circle></g></g><g><g><circle cx="155.755" cy="3.377" fill="#87d147" r="3.377" data-original="#87d147"></circle></g></g><g><g><path d="m106.025 141.638c-21.899 0-39.715-17.816-39.715-39.715v-29.936c.001-1.371.603-2.628 1.65-3.479 1.059-.859 2.433-1.192 3.764-.912 7.237 1.514 25.418 3.338 37.917-12.38.796-1 1.982-1.619 3.253-1.698 1.273-.081 2.521.389 3.432 1.281 2.593 2.542 10.226 8.501 25.06 8.936 2.391.071 4.3 2.006 4.348 4.406.004.209.006.42.006.632v33.151c0 21.898-17.816 39.714-39.715 39.714zm-34.715-69.025v29.311c0 19.142 15.573 34.715 34.715 34.715s34.715-15.573 34.715-34.715v-33.152c0-.019 0-.038 0-.056-15.154-.563-23.626-6.308-27.522-9.97-14.188 17.397-34.92 15.217-41.908 13.867zm42.244-14.284c0 .001 0 .001-.001.002 0-.001.001-.001.001-.002z" fill="#000000" data-original="#000000" class=""></path></g></g><g><g><g><path d="m156.404 79.5c-1.381 0-2.5-1.119-2.5-2.5v-27.027c0-10.343-8.415-18.758-18.758-18.758-3.345 0-6.655.925-9.574 2.675-.569.341-1.251.441-1.893.281-.643-.161-1.196-.571-1.537-1.14-3.396-5.668-9.56-9.19-16.086-9.19h-10.915c-19.803 0-35.913 16.111-35.913 35.914v16.87c0 1.381-1.119 2.5-2.5 2.5s-2.5-1.119-2.5-2.5v-16.87c0-22.56 18.354-40.914 40.913-40.914h10.916c7.481 0 14.582 3.641 19.048 9.638 3.15-1.487 6.579-2.264 10.042-2.264 13.1 0 23.758 10.658 23.758 23.758v27.027c-.001 1.38-1.12 2.5-2.501 2.5z" fill="#000000" data-original="#000000" class=""></path></g></g></g><g><g><path d="m145.628 107.136c-.622 0-1.254-.038-1.933-.117-1.372-.159-2.354-1.399-2.196-2.771.159-1.371 1.392-2.356 2.771-2.196.485.056.93.083 1.357.083 7.189 0 13.038-5.849 13.038-13.038s-5.849-13.038-13.038-13.038c-.41 0-.835.022-1.265.065-1.372.134-2.599-.865-2.737-2.239-.137-1.374.865-2.599 2.239-2.737.594-.059 1.187-.089 1.763-.089 9.946 0 18.038 8.092 18.038 18.038s-8.091 18.039-18.037 18.039z" fill="#000000" data-original="#000000" class=""></path></g></g><g><g><path d="m66.422 107.136c-9.946 0-18.038-8.092-18.038-18.038s8.092-18.038 18.038-18.038c.476 0 .947.02 1.413.058 1.376.113 2.4 1.32 2.288 2.696-.113 1.377-1.327 2.402-2.696 2.288-.332-.027-.667-.042-1.005-.042-7.189 0-13.038 5.849-13.038 13.038s5.849 13.038 13.038 13.038c.346 0 .688-.018 1.025-.049 1.381-.132 2.592.885 2.719 2.26s-.885 2.592-2.26 2.719c-.505.046-1.004.07-1.484.07z" fill="#000000" data-original="#000000" class=""></path></g></g><g><g><path d="m119.63 160.714c-.619 0-1.239-.229-1.723-.688-1-.952-1.04-2.534-.088-3.535l8.831-9.284c1.628-1.711 4.372-1.808 6.116-.215l8.134 7.427c1.179 1.076 1.676 2.711 1.295 4.265-.329 1.34-1.682 2.161-3.023 1.833-1.212-.297-2-1.432-1.897-2.638l-7.426-6.78-8.406 8.838c-.492.517-1.152.777-1.813.777z" fill="#000000" data-original="#000000" class=""></path></g></g><g><g><path d="m90.548 180.391c-.044 0-.087 0-.131-.002-1.379-.038-2.674-.669-3.553-1.733l-15.054-18.224c-1.486-1.798-1.301-4.439.422-6.013l8.134-7.427c1.745-1.593 4.489-1.497 6.116.216l15.687 16.491c1.673 1.76 1.693 4.535.047 6.318l-8.157 8.836c-.906.982-2.18 1.538-3.511 1.538zm-14.504-22.683 14.512 17.568 7.744-8.39-15.018-15.788zm-.44.403c0-.001.001-.001.002-.002z" fill="#000000" data-original="#000000" class=""></path></g></g><g><g><path d="m164.958 226.951c-14.31 0-25.951-11.642-25.951-25.951s11.642-25.951 25.951-25.951 25.951 11.642 25.951 25.951-11.641 25.951-25.951 25.951zm0-46.902c-11.553 0-20.951 9.398-20.951 20.951s9.398 20.951 20.951 20.951c11.552 0 20.951-9.398 20.951-20.951s-9.398-20.951-20.951-20.951z" fill="#000000" data-original="#000000" class=""></path></g></g><g><g><path d="m86.541 237h-29.603c-2.436 0-4.417-1.981-4.417-4.417v-11.583h-22.365c-1.381 0-2.5-1.119-2.5-2.5s1.119-2.5 2.5-2.5h24.865c1.381 0 2.5 1.119 2.5 2.5v13.5h29.02c2.208 0 4.212-.738 5.642-2.078 2.699-2.529 6.209-3.922 9.883-3.922h6.81c1.381 0 2.5 1.119 2.5 2.5s-1.119 2.5-2.5 2.5h-6.81c-2.4 0-4.695.913-6.464 2.571-2.36 2.211-5.578 3.429-9.061 3.429z" fill="#000000" data-original="#000000" class=""></path></g></g></g></g></g></svg>