<svg xmlns="http://www.w3.org/2000/svg" version="1.1" xmlns:xlink="http://www.w3.org/1999/xlink" xmlns:svgjs="http://svgjs.com/svgjs" width="512" height="512" x="0" y="0" viewBox="0 0 256 256" style="enable-background:new 0 0 512 512" xml:space="preserve" class=""><g><g id="Layer_2"><g><g><g><path d="m106.06 228.5v-64.37c0-3.045 2.491-5.536 5.536-5.536h47.05l-15.763-3.979c-2.075-.523-4.089-1.263-6.009-2.209l-8.587-4.234c-3.298-1.626-5.386-4.984-5.386-8.66v-10.533c-4.92 2.682-10.551 4.208-16.52 4.208-5.97 0-11.6-1.526-16.52-4.208v10.533c0 3.677-2.088 7.034-5.386 8.66l-8.587 4.234c-1.919.946-3.933 1.687-6.009 2.209l-24.833 6.269c-6.044 1.521-10.396 6.796-10.743 13.019l-1.528 41.997c8.75 3.633 17.911 6.637 27.403 8.951v-21.171l3.883 12.439c1.867 5.982 3.054 12.148 3.554 18.381h16.307c2.703 0 5.38-.905 7.352-2.754 2.145-2.01 5.02-3.246 8.174-3.246z" fill="#nannannan" data-original="#3a70bf" class=""></path></g></g><g><g><path d="m211.084 158.594h-99.488c-3.045 0-5.536 2.491-5.536 5.536v72.093c0 3.045 2.491 5.536 5.536 5.536h99.488c3.045 0 5.536-2.491 5.536-5.536v-72.093c0-3.045-2.491-5.536-5.536-5.536z" fill="#edf4fc" data-original="#edf4fc" class=""></path></g></g><g><g><path d="m221.049 241.759h-119.418c-1.877 0-3.398 1.521-3.398 3.398 0 4.607 3.735 8.343 8.343 8.343h109.53c4.607 0 8.343-3.735 8.343-8.343-.002-1.876-1.523-3.398-3.4-3.398z" fill="#c7d7e5" data-original="#c7d7e5" class=""></path></g></g><g><g><path d="m128.287 148.172 8.587 4.234c1.919.946 3.934 1.687 6.009 2.209l15.762 3.979h1.775c1.191-15.959-15.976-25.564-11.364-37.094 4.1-10.251 3.995-18.131 2.92-23.384-2.414 1.795-5.395 2.871-8.634 2.871-.79 0-1.56-.08-2.316-.202-.816 12.152-7.945 22.647-18.124 28.194v10.533c-.001 3.676 2.087 7.034 5.385 8.66z" fill="#f9c536" data-original="#5b5d60" class=""></path></g></g><g><g><path d="m69.88 154.615c2.075-.523 4.089-1.263 6.009-2.209l8.587-4.234c3.298-1.626 5.386-4.984 5.386-8.66v-10.533c-10.179-5.548-17.308-16.042-18.124-28.194-.756.122-1.526.202-2.316.202-3.239 0-6.22-1.075-8.634-2.87-1.075 5.253-1.18 13.133 2.92 23.384 4.655 11.637-12.887 21.309-11.338 37.536z" fill="#f9c536" data-original="#5b5d60" class=""></path></g></g><g><g><path d="m143.342 71.985c-.759 0-1.502.064-2.229.177v26.293c0 .783-.036 1.558-.088 2.329.756.122 1.526.202 2.316.202 8.009 0 14.501-6.492 14.501-14.501 0-8.008-6.492-14.5-14.5-14.5z" fill="#ffd5bf" data-original="#f9d0b4" class=""></path></g></g><g><g><path d="m122.994 60.642c-5.29 6.174-24.047 24.906-51.344 17.13v20.684c0 19.102 15.629 34.732 34.732 34.732 19.102 0 34.732-15.629 34.732-34.732v-28.06c0-1.276-.893-2.358-2.136-2.646-3.515-.814-7.782-2.85-12.673-7.294-.969-.879-2.461-.807-3.311.186z" fill="#ffd5bf" data-original="#f9d0b4" class=""></path></g></g><g><g><path d="m71.65 77.771c-2.385-.679-4.834-1.559-7.346-2.668-1.619-.715-3.511-.386-4.803.825-2.817 2.641-4.581 6.39-4.581 10.557 0 8.008 6.492 14.501 14.501 14.501.79 0 1.56-.08 2.316-.202-.052-.771-.088-1.546-.088-2.329v-20.684z" fill="#ffd5bf" data-original="#f9d0b4" class=""></path></g></g><g><g><g><path d="m59.501 75.929c1.291-1.211 3.183-1.54 4.803-.825 2.512 1.109 4.961 1.988 7.346 2.668 27.297 7.776 46.055-10.956 51.344-17.13.85-.992 2.342-1.065 3.309-.186 4.892 4.445 9.159 6.48 12.673 7.294 1.243.288 2.136 1.37 2.136 2.646v1.766c.727-.113 1.47-.177 2.229-.177 4.012 0 7.643 1.63 10.268 4.263v-8.494c0-25.976-21.253-47.229-47.229-47.229s-47.229 21.253-47.229 47.229v8.535c.12-.118.228-.246.35-.36z" fill="#f9c536" data-original="#5b5d60" class=""></path></g></g></g><g><g><circle cx="161.34" cy="201" fill="#f9a0ea" r="23.451" data-original="#70d6f9" class=""></circle></g></g><g><g><path d="m138.198 153.016c-.446-.194-.888-.395-1.324-.61l-8.587-4.234c-3.298-1.626-5.386-4.984-5.386-8.66v-10.533c-4.92 2.682-10.551 4.208-16.52 4.208-5.97 0-11.6-1.526-16.52-4.208v10.533c0 3.677-2.088 7.034-5.386 8.66l-8.587 4.234c-.47.232-.946.45-1.426.657 5.704 11.771 17.724 19.965 31.597 20.067v-9c0-3.045 2.491-5.536 5.536-5.536h23.255c1.281-1.745 2.4-3.613 3.348-5.578z" fill="#ffd5bf" data-original="#f9d0b4" class=""></path></g></g><g><g><path d="m98.232 245.157c0-1.877 1.521-3.398 3.398-3.398.181 0 10.066 0 9.965 0-3.045 0-5.536-2.491-5.536-5.536v-7.723h-6.612c-3.154 0-6.029 1.236-8.174 3.246-1.972 1.848-4.649 2.754-7.352 2.754h-22.222c-.84 0-1.522-.681-1.522-1.522v-8.127c-9.492-2.315-18.653-5.318-27.403-8.951l-1.216 33.42c-.127 2.269 1.68 4.179 3.953 4.179h71.063c-4.607.001-8.342-3.734-8.342-8.342z" fill="#ffd5bf" data-original="#f9d0b4" class=""></path></g></g><g><g><path d="m67.581 236.624c-1.285 0-2.378-.985-2.488-2.289-.4-4.726-1.21-9.415-2.415-13.982v4.5c0 .767-.353 1.492-.956 1.966-.604.474-1.392.645-2.137.462-9.523-2.323-18.866-5.375-27.769-9.071-.964-.4-1.578-1.357-1.54-2.4l1.528-41.998c.412-7.403 5.487-13.554 12.631-15.352l24.832-6.268c1.903-.479 3.758-1.161 5.515-2.027l8.587-4.234c2.462-1.214 3.991-3.673 3.991-6.418v-10.179c0-1.381 1.119-2.5 2.5-2.5s2.5 1.119 2.5 2.5v10.179c0 4.663-2.598 8.84-6.78 10.902l-8.587 4.234c-2.073 1.022-4.261 1.827-6.504 2.391l-24.832 6.268c-5.012 1.262-8.571 5.575-8.858 10.734l-1.463 40.207c7.211 2.913 14.706 5.392 22.341 7.393v-17.96c0-1.235.902-2.285 2.123-2.472 1.22-.187 2.396.548 2.763 1.727l3.883 12.438c1.874 6.001 3.094 12.238 3.628 18.539.116 1.376-.904 2.585-2.28 2.702-.071.005-.142.008-.213.008z" fill="#000000" data-original="#000000" class=""></path></g></g><g><g><path d="m158.403 161.033c-.203 0-.408-.025-.614-.077l-15.519-3.917c-2.241-.564-4.43-1.369-6.502-2.391l-8.587-4.234c-4.182-2.062-6.78-6.239-6.78-10.902v-9.918c0-1.381 1.119-2.5 2.5-2.5s2.5 1.119 2.5 2.5v9.918c0 2.745 1.529 5.204 3.991 6.418l8.587 4.234c1.757.866 3.612 1.548 5.514 2.027l15.52 3.918c1.339.338 2.15 1.697 1.812 3.036-.286 1.133-1.304 1.888-2.422 1.888z" fill="#000000" data-original="#000000" class=""></path></g></g><g><g><path d="m106.381 117.757c-4.776 0-9.262-1.95-11.999-5.215-.887-1.058-.748-2.635.31-3.522 1.059-.888 2.636-.747 3.522.31 1.798 2.146 4.852 3.427 8.167 3.427s6.368-1.281 8.167-3.427c.887-1.058 2.463-1.197 3.522-.31 1.058.887 1.197 2.464.31 3.522-2.737 3.266-7.223 5.215-11.999 5.215z" fill="#000000" data-original="#000000" class=""></path></g></g><g><g><circle cx="123.671" cy="90.816" r="4" fill="#000000" data-original="#000000" class=""></circle></g></g><g><g><circle cx="90.092" cy="90.816" r="4" fill="#000000" data-original="#000000" class=""></circle></g></g><g><g><g><path d="m130.148 106.182h-8.617c-7.05 0-12.785-5.735-12.785-12.785v-5.961c0-5.295 4.308-9.604 9.604-9.604h14.979c5.296 0 9.604 4.308 9.604 9.604v5.961c0 7.05-5.735 12.785-12.785 12.785zm-11.798-23.349c-2.539 0-4.604 2.065-4.604 4.604v5.961c0 4.293 3.492 7.785 7.785 7.785h8.617c4.293 0 7.785-3.492 7.785-7.785v-5.961c0-2.539-2.065-4.604-4.604-4.604z" fill="#000000" data-original="#000000" class=""></path></g></g><g><g><path d="m91.232 106.182h-8.618c-7.049 0-12.785-5.735-12.785-12.785v-5.961c0-5.295 4.308-9.604 9.604-9.604h14.979c5.295 0 9.604 4.308 9.604 9.604v5.961c.001 7.05-5.735 12.785-12.784 12.785zm-11.798-23.349c-2.539 0-4.604 2.065-4.604 4.604v5.961c0 4.293 3.492 7.785 7.785 7.785h8.618c4.292 0 7.785-3.492 7.785-7.785v-5.961c0-2.539-2.065-4.604-4.604-4.604z" fill="#000000" data-original="#000000" class=""></path></g></g></g><g><g><path d="m110.273 91.171h-7.783c-1.381 0-2.5-1.119-2.5-2.5s1.119-2.5 2.5-2.5h7.783c1.381 0 2.5 1.119 2.5 2.5s-1.119 2.5-2.5 2.5z" fill="#000000" data-original="#000000" class=""></path></g></g><g><g><path d="m211.28 244.255c-1.34 0-2.449-1.062-2.497-2.411-.049-1.38 1.03-2.538 2.41-2.587 1.614-.057 2.927-1.418 2.927-3.034v-72.093c0-1.674-1.362-3.036-3.036-3.036h-99.488c-1.674 0-3.036 1.362-3.036 3.036v72.093c0 1.6 1.3 2.96 2.898 3.033 1.379.063 2.447 1.231 2.385 2.61-.063 1.379-1.229 2.425-2.61 2.385-4.302-.194-7.672-3.721-7.672-8.028v-72.093c0-4.431 3.605-8.036 8.036-8.036h99.488c4.431 0 8.036 3.605 8.036 8.036v72.093c0 4.349-3.404 7.876-7.75 8.031-.031.001-.061.001-.091.001z" fill="#000000" data-original="#000000" class=""></path></g></g><g><g><path d="m216.104 256h-109.53c-5.979 0-10.842-4.864-10.842-10.843 0-3.252 2.646-5.898 5.898-5.898h119.418c3.252 0 5.898 2.646 5.898 5.898.001 5.979-4.863 10.843-10.842 10.843zm-114.474-11.741c-.495 0-.898.403-.898.898 0 3.222 2.621 5.843 5.842 5.843h109.53c3.222 0 5.843-2.621 5.843-5.843 0-.495-.403-.898-.898-.898z" fill="#000000" data-original="#000000" class=""></path></g></g><g><g><g><path d="m151.712 210.271c-.688 0-1.373-.282-1.867-.836l-5.969-6.692c-.846-.948-.846-2.38 0-3.328l5.969-6.692c.918-1.03 2.5-1.121 3.53-.202s1.121 2.5.202 3.53l-4.484 5.028 4.484 5.028c.919 1.03.829 2.611-.202 3.53-.477.426-1.071.634-1.663.634z" fill="#000000" data-original="#000000" class=""></path></g></g><g><g><path d="m170.967 210.271c-.592 0-1.187-.209-1.663-.634-1.03-.919-1.121-2.5-.202-3.53l4.484-5.028-4.484-5.028c-.919-1.03-.829-2.611.202-3.53 1.031-.92 2.61-.828 3.53.202l5.969 6.692c.846.948.846 2.38 0 3.328l-5.969 6.692c-.494.554-1.179.836-1.867.836z" fill="#000000" data-original="#000000" class=""></path></g></g><g><g><path d="m158.422 210.042c-.335 0-.675-.067-1.002-.21-1.265-.554-1.84-2.029-1.287-3.293l5.833-13.313c.554-1.264 2.027-1.841 3.293-1.287 1.265.554 1.84 2.029 1.287 3.293l-5.833 13.313c-.411.937-1.328 1.497-2.291 1.497z" fill="#000000" data-original="#000000" class=""></path></g></g></g><g><g><path d="m174.822 28.33c-4.498-.838-8.043-4.31-8.898-8.716-.043-.221-.352-.221-.395 0-.855 4.406-4.4 7.879-8.898 8.716-.226.042-.226.345 0 .387 4.498.838 8.043 4.31 8.898 8.717.043.221.352.221.395 0 .855-4.406 4.4-7.879 8.898-8.717.225-.042.225-.344 0-.387z" fill="#f5c84c" data-original="#f5c84c" class=""></path></g></g><g><g><path d="m173.515 112.101c-2.862-.533-5.118-2.743-5.663-5.547-.027-.141-.224-.141-.251 0-.544 2.804-2.8 5.014-5.663 5.547-.144.027-.144.219 0 .246 2.862.533 5.118 2.743 5.663 5.547.027.141.224.141.251 0 .544-2.804 2.8-5.014 5.663-5.547.143-.027.143-.219 0-.246z" fill="#fc657e" data-original="#fc657e" class=""></path></g></g><g><g><path d="m34.246 120.75h2.33v-2.33c0-1.744 1.413-3.157 3.157-3.157s3.157 1.413 3.157 3.157v2.33h2.329c1.744 0 3.157 1.413 3.157 3.157s-1.413 3.157-3.157 3.157h-2.329v2.33c0 1.744-1.413 3.157-3.157 3.157s-3.157-1.413-3.157-3.157v-2.33h-2.33c-1.744 0-3.157-1.413-3.157-3.157s1.413-3.157 3.157-3.157z" fill="#f9a0ea" data-original="#70d6f9" class=""></path></g></g><g><g><circle cx="24.755" cy="152.825" fill="#87d147" r="3.377" data-original="#87d147"></circle></g></g><g><g><circle cx="148.755" cy="3.377" fill="#fc657e" r="3.377" data-original="#fc657e" class=""></circle></g></g><g><g><path d="m160.44 160.846c-.053 0-.106-.001-.16-.005-1.378-.087-2.425-1.274-2.338-2.652.438-6.951-3.064-12.681-6.451-18.222-3.719-6.084-7.564-12.376-4.757-19.396 3.894-9.734 3.712-17.086 2.874-21.539-.255-1.357.638-2.664 1.995-2.919 1.358-.252 2.664.638 2.919 1.995 1.397 7.427.339 15.609-3.146 24.321-1.787 4.466.501 8.583 4.38 14.931 3.615 5.914 7.712 12.618 7.175 21.144-.082 1.323-1.182 2.342-2.491 2.342z" fill="#000000" data-original="#000000" class=""></path></g></g><g><g><path d="m52.332 161.125c-1.295 0-2.39-.998-2.49-2.31-.662-8.676 3.493-15.468 7.159-21.46 3.882-6.346 6.171-10.462 4.385-14.927-4.36-10.902-4.107-19.294-3.127-24.416.26-1.356 1.568-2.245 2.926-1.985 1.356.26 2.245 1.569 1.985 2.926-.855 4.465-1.053 11.84 2.858 21.619 2.808 7.019-1.041 13.31-4.762 19.393-3.43 5.607-6.978 11.406-6.439 18.471.105 1.376-.926 2.578-2.303 2.683-.065.004-.129.006-.192.006z" fill="#000000" data-original="#000000" class=""></path></g></g><g><g><path d="m143.342 103.487c-.547 0-1.102-.031-1.696-.096-1.373-.148-2.365-1.382-2.216-2.754.148-1.373 1.382-2.375 2.754-2.216.414.044.792.066 1.158.066 6.617 0 12-5.384 12-12.001s-5.383-12-12-12c-.374 0-.758.02-1.143.058-1.383.131-2.598-.867-2.735-2.241-.136-1.374.867-2.598 2.241-2.735 10.091-1 18.638 7.006 18.638 16.918-.001 9.374-7.627 17.001-17.001 17.001z" fill="#000000" data-original="#000000" class=""></path></g></g><g><g><path d="m106.381 135.687c-20.53 0-37.232-16.702-37.232-37.232v-20.684c0-.784.368-1.523.994-1.995.626-.473 1.438-.625 2.191-.409 25.918 7.382 43.875-10.649 48.761-16.352.849-.991 2.033-1.581 3.333-1.663 1.292-.077 2.591.375 3.556 1.253 3.952 3.59 7.84 5.848 11.557 6.709 2.397.556 4.072 2.645 4.072 5.081v28.06c0 20.53-16.702 37.232-37.232 37.232zm-32.232-54.708v17.476c0 17.773 14.459 32.232 32.232 32.232 17.772 0 32.231-14.459 32.231-32.232v-28.06c0-.113-.101-.187-.201-.21-4.515-1.046-9.109-3.656-13.656-7.759-5.357 6.199-23.785 24.432-50.606 18.553zm50.743-18.711c0 .001 0 .001 0 0z" fill="#000000" data-original="#000000" class=""></path></g></g><g><g><path d="m69.421 103.487c-9.375 0-17.001-7.626-17.001-17.001 0-4.668 1.958-9.181 5.371-12.381 2.03-1.904 4.983-2.409 7.523-1.288 2.331 1.029 4.693 1.888 7.02 2.55 1.328.378 2.098 1.761 1.72 3.089-.378 1.329-1.764 2.098-3.089 1.72-2.548-.726-5.129-1.663-7.671-2.785-.702-.31-1.519-.168-2.083.361-2.445 2.292-3.791 5.394-3.791 8.733 0 6.617 5.384 12.001 12.001 12.001.422 0 .86-.029 1.34-.088 1.373-.167 2.618.806 2.787 2.176.168 1.37-.806 2.618-2.176 2.787-.685.085-1.323.126-1.951.126z" fill="#000000" data-original="#000000" class=""></path></g></g><g><g><g><path d="m59.152 78.438c-1.381 0-2.5-1.119-2.5-2.5v-8.183c0-27.421 22.308-49.729 49.729-49.729 27.42 0 49.729 22.308 49.729 49.729v7.87c0 1.381-1.119 2.5-2.5 2.5s-2.5-1.119-2.5-2.5v-7.87c0-24.664-20.065-44.729-44.729-44.729s-44.729 20.065-44.729 44.729v8.183c0 1.38-1.119 2.5-2.5 2.5z" fill="#000000" data-original="#000000" class=""></path></g></g></g><g><g><path d="m161.34 226.951c-14.31 0-25.951-11.642-25.951-25.951s11.642-25.951 25.951-25.951 25.951 11.642 25.951 25.951-11.642 25.951-25.951 25.951zm0-46.902c-11.553 0-20.951 9.398-20.951 20.951s9.398 20.951 20.951 20.951c11.552 0 20.951-9.398 20.951-20.951s-9.399-20.951-20.951-20.951z" fill="#000000" data-original="#000000" class=""></path></g></g><g><g><path d="m105.261 175.615c-.025 0-.051 0-.076-.001-13.686-.409-26.139-8.271-32.5-20.519-.636-1.226-.159-2.735 1.066-3.371 1.226-.635 2.734-.159 3.371 1.066 5.526 10.641 16.335 17.471 28.211 17.825 1.38.042 2.465 1.193 2.424 2.574-.039 1.355-1.15 2.426-2.496 2.426z" fill="#000000" data-original="#000000" class=""></path></g></g><g><g><path d="m135.192 160.617c-.5 0-1.003-.149-1.442-.459-1.127-.797-1.394-2.358-.596-3.485.963-1.36 1.833-2.815 2.587-4.324.617-1.235 2.119-1.735 3.354-1.119 1.235.617 1.736 2.119 1.119 3.354-.867 1.735-1.869 3.41-2.979 4.977-.487.689-1.259 1.056-2.043 1.056z" fill="#000000" data-original="#000000" class=""></path></g></g><g><g><path d="m83.922 237h-22.222c-2.218 0-4.022-1.804-4.022-4.021v-8.126c0-1.381 1.119-2.5 2.5-2.5s2.5 1.119 2.5 2.5v7.147h21.244c2.208 0 4.212-.738 5.642-2.078 2.699-2.529 6.209-3.922 9.883-3.922h6.031c1.381 0 2.5 1.119 2.5 2.5s-1.119 2.5-2.5 2.5h-6.031c-2.4 0-4.695.913-6.464 2.571-2.36 2.211-5.578 3.429-9.061 3.429z" fill="#000000" data-original="#000000" class=""></path></g></g><g><g><path d="m106.06 256h-70.548c-1.768 0-3.478-.736-4.692-2.021-1.214-1.284-1.854-3.033-1.756-4.798l1.214-33.372c.051-1.38 1.233-2.445 2.589-2.408 1.38.05 2.458 1.209 2.408 2.589l-1.216 33.42c-.033.594.233.961.395 1.132s.511.458 1.058.458h70.548c1.381 0 2.5 1.119 2.5 2.5s-1.12 2.5-2.5 2.5z" fill="#000000" data-original="#000000" class=""></path></g></g></g></g></g></svg>