<?xml version="1.0" encoding="utf-8"?>
<!-- Generator: Adobe Illustrator 24.0.1, SVG Export Plug-In . SVG Version: 6.00 Build 0)  -->
<svg version="1.1" id="Layer_1" xmlns="http://www.w3.org/2000/svg" xmlns:xlink="http://www.w3.org/1999/xlink" x="0px" y="0px"
	 viewBox="0 0 728.5 184.7" style="enable-background:new 0 0 728.5 184.7;" xml:space="preserve">
<style type="text/css">
	.st0{fill:none;stroke:#000000;stroke-width:2.5;stroke-linecap:round;stroke-linejoin:round;}
</style>
<title>Untitled 1</title>
<desc>Drawing exported from Concepts: Smarter Sketching</desc>
<g id="Pen">
	<path id="STROKE_749c2a49-a8b8-4c2b-86b3-661a491d58eb" class="st0" d="M151.4,67.4c-1.3,0.4-2.4,0.9-3.4,1.4
		c-0.9,0.5-1.5,0.8-1.8,1c-0.2,0.2-0.8,0.6-1.6,1.2c-0.8,0.6-1.5,1.2-2,1.8c-0.6,0.6-1.1,1.2-1.6,2c-0.5,0.7-1,1.5-1.5,2.4
		c-0.5,0.9-0.9,1.8-1.3,2.9c-0.4,1.1-0.8,2.5-1.2,4.2c-0.4,1.7-0.7,3.2-0.8,4.3c-0.1,1.1-0.1,2.6-0.1,4.3c0,1.7,0.3,3.3,0.7,4.9
		c0.4,1.6,0.9,2.9,1.5,4.1c0.6,1.2,1.7,2.5,3.2,4c1.5,1.5,3,2.7,4.5,3.6c1.5,0.9,3,1.7,4.5,2.5c1.5,0.7,3.3,1.4,5.2,2.1
		c2,0.6,3.7,1.1,5.4,1.4c1.6,0.3,2.8,0.5,3.5,0.6c0.7,0.1,1.9,0.1,3.6,0c1.7-0.1,3.6-0.3,5.5-0.8c1.9-0.5,3.3-0.8,4.2-1.1
		c0.9-0.3,1.9-0.8,3.2-1.4c1.3-0.6,2.5-1.4,3.7-2.2c1.2-0.8,2.1-1.5,2.6-2c0.6-0.5,1-1,1.4-1.4c0.4-0.4,0.8-1,1.4-1.8
		c0.6-0.8,1-1.4,1.2-1.8c0.2-0.4,0.5-0.9,0.8-1.5c0.3-0.6,0.6-1.5,1-2.5c0.3-1,0.6-1.7,0.7-2.1c0.1-0.4,0.2-1,0.3-1.8
		c0.1-0.8,0.2-1.6,0.2-2.3c0-0.7,0-1.5-0.1-2.6c-0.1-1-0.2-2-0.4-3c-0.2-0.9-0.5-1.7-0.7-2.5c-0.3-0.7-0.7-1.6-1.2-2.5
		c-0.5-1-1.2-2.1-2.2-3.5c-1-1.3-2-2.5-3.1-3.6c-1.1-1.1-1.9-1.8-2.3-2.1c-0.4-0.3-1.2-0.8-2.5-1.5c-1.3-0.7-2.8-1.4-4.6-2
		c-1.8-0.6-3.2-1-4.2-1.2s-1.9-0.4-2.6-0.5c-0.7-0.1-2.2-0.2-4.5-0.4c-2.3-0.1-3.8-0.2-4.4-0.2c-0.6,0-1.2,0-1.7,0c-0.5,0-1,0-1.5,0
		c-0.5,0-1.1,0-1.7,0.1c-0.6,0-1.2,0.1-1.8,0.1c-0.6,0.1-1,0.1-1.4,0.2c-0.4,0.1-0.7,0.2-1,0.2c-0.3,0-0.9,0.2-2.1,0.5"/>
	<path id="STROKE_8d87c581-61ef-4cd8-9e1d-5c32d7ef6917" class="st0" d="M177.2,68.8l0.7-1.7c0.5-1,1.2-2.1,1.9-3.3s1.8-2.5,3.2-4.1
		c1.4-1.6,2.5-2.8,3.3-3.5c0.8-0.8,1.7-1.6,2.8-2.4c1-0.9,2.1-1.7,3.2-2.4c1.1-0.7,2-1.2,2.8-1.6c0.7-0.3,1.4-0.5,2-0.6l0.8-0.2
		l0.6-0.1c0.9,0.7,1.6,1.2,1.9,1.5c0.4,0.3,0.7,0.5,1.1,0.8c0.4,0.2,0.7,0.4,1.1,0.5c0.3,0.1,0.7,0.2,1.1,0.3
		c0.4,0.1,1.5,0.1,3.4-0.1l1.2-0.8l0.5-0.6c0.1-0.2,0.3-0.7,0.4-1.4c0.1-0.7,0.1-1.3,0-1.8c-0.1-0.5-0.4-1-0.8-1.4
		c-0.4-0.4-0.9-0.8-1.5-1.1c-1.8-0.4-3-0.6-3.5-0.6c-0.6,0-1.2,0.2-1.8,0.5c-0.6,0.3-1,0.6-1.4,1c-0.3,0.3-0.6,0.6-0.8,0.9
		c-0.2,0.2-0.3,0.5-0.4,0.7c-0.1,0.2-0.2,0.3-0.2,0.4c-0.1,0-0.2,0.7-0.4,2.1l0.1,1.2"/>
	<path id="STROKE_cc9fb940-cc91-40c1-8970-ef1343b12e52" class="st0" d="M145.4,67.7c0.3-0.2,0.5-0.4,0.6-0.5
		c0.1-0.1,0.2-0.7,0.3-1.9c0.2-1.2,0.3-2.3,0.2-3.4c0-1.1-0.1-2.5-0.4-4.2c-0.2-1.7-0.6-3.5-1.2-5.4c-0.6-1.9-1.1-3.3-1.5-4.2
		c-0.4-0.9-0.8-1.5-1-1.9c-0.2-0.4-0.5-0.7-0.7-1.1c-0.2-0.3-0.5-0.8-1-1.3c-0.5-0.6-1-1.1-1.6-1.7c-0.6-0.5-1.3-1.1-2.1-1.6
		c-0.8-0.5-1.5-0.9-2-1.1c-0.5-0.2-0.9-0.3-1.2-0.4c-0.3-0.1-0.5-0.1-0.6-0.1c-0.1,0-0.4,0-0.9,0c-0.5,0-1,0.1-1.7,0.4
		s-0.9,0.4-1,0.5l-0.1,0.5c-0.7,2-1.1,3.2-1.3,3.6c-0.2,0.4-0.4,0.8-0.6,1.2c-0.2,0.3-0.7,0.8-1.6,1.3c-0.6,0.1-1,0.2-1.1,0.2
		c-0.2,0-0.6,0-1.3-0.2c-0.7-0.2-1.2-0.4-1.6-0.8c-0.4-0.4-0.7-0.7-0.9-1c-0.2-0.3-0.3-0.7-0.3-1.2c0-0.4-0.1-0.7-0.1-0.7
		c0,0,0.1-0.3,0.2-0.8c0.2-0.5,0.4-1.1,0.7-1.6c0.3-0.5,0.6-0.9,0.8-1.1c0.2-0.2,0.4-0.4,0.7-0.5c0.3-0.2,0.7-0.3,1.2-0.5
		c0.5-0.1,1-0.2,1.3-0.2c0.3,0,0.7,0,1.1,0c0.4,0,0.8,0.1,1.1,0.2c0.3,0.1,0.6,0.2,0.9,0.4c0.3,0.2,0.6,0.4,0.8,0.6s1,1,2.4,2.4"/>
	<path id="STROKE_05ab3f16-3f57-470b-923d-1834421ddf8c" class="st0" d="M151.4,94.2c1.4,0.8,2.8,1.5,4,2.1c1.2,0.6,2.5,1.2,4,1.7
		c1.5,0.5,2.6,0.8,3.5,1c0.9,0.1,1.9,0.2,3,0.1c1.1-0.1,2.6-0.4,4.6-1c1.2-0.6,1.8-1,1.9-1c0.1,0,0.4-0.3,1-0.7c0.6-0.5,1.2-1.1,2-2
		c0.8-0.8,1.7-2,2.7-3.4"/>
	<path id="STROKE_a689a271-0f77-4b19-959a-d5f42b0f10e0" class="st0" d="M151.6,80.9c0,0.2,0.1,0.3,0.2,0.4c0.1,0.1,0.2,0.1,0.4,0.1
		c0.1-0.3,0.2-0.5,0.1-0.6c0-0.1-0.1-0.1-0.1-0.1c0,0-0.1,0-0.1,0.1c0,0.1-0.1,0.1-0.1,0.2c0,0,0,0.1,0,0.2c0,0.1,0,0.2,0.1,0.3
		c0.1,0.1,0.2,0.1,0.3,0.2c0.2,0,0.3,0,0.3,0c0.1,0,0.1-0.1,0.2-0.2c0-0.1,0.1-0.2,0.1-0.3c0-0.1,0-0.2,0-0.2c0-0.1,0-0.1-0.1-0.1
		c-0.1,0-0.1,0-0.1,0c0,0,0,0.1,0.1,0.3l0.2,0c0.1-0.1,0.2-0.2,0.2-0.3c0-0.1,0-0.1,0-0.2c0,0,0,0,0.2,0.2"/>
	<path id="STROKE_4b60be6f-54e3-4eb0-843a-23d73009732e" class="st0" d="M169.9,79.1l0.1,0.3c0.1,0.3,0.3,0.4,0.4,0.5
		c0.1,0,0.2,0.1,0.3,0c0.1,0,0.1-0.1,0.2-0.2l-0.1,0.1l0.2,0.5l0.4,0.1c0.1,0,0.1-0.1,0.1-0.1c0-0.1,0-0.1,0-0.2c0,0,0,0.1,0.1,0.2
		l0.1,0c0.1-0.2,0.2-0.3,0.2-0.3c0-0.2,0-0.2-0.1-0.3l0,0"/>
	<path id="STROKE_a1d44507-be55-466f-a1b8-533726e98a68" class="st0" d="M135.6,85.6l-0.8-1.1c-0.7-0.9-1.2-1.5-1.6-1.8
		c-0.3-0.3-0.8-0.6-1.4-1s-1.3-0.7-2-1c-0.8-0.3-1.6-0.5-2.4-0.6c-0.8-0.1-1.6-0.1-2.5,0c-0.8,0.1-1.5,0.2-2,0.3
		c-0.5,0.1-1.3,0.4-2.4,0.9c-1.1,0.5-2.2,1.2-3.5,2.1c-1.2,0.9-2,1.6-2.3,2c-0.3,0.4-0.6,0.7-0.8,1c-0.2,0.3-0.5,0.8-0.8,1.4
		c-0.3,0.6-0.8,1.8-1.4,3.6c-0.6,1.8-0.9,3.2-1.1,4.3c-0.2,1.1-0.2,2.4-0.2,3.8c0,1.4,0.2,3,0.5,4.6c0.3,1.7,0.5,2.8,0.7,3.2
		c0.1,0.5,0.2,0.9,0.3,1.1c0.1,0.3,0.4,1.2,0.9,2.8c0.6,1.6,1.1,2.8,1.6,3.7c0.5,0.9,1,1.7,1.5,2.5s1.1,1.5,1.8,2.3s1.1,1.2,1.3,1.4
		c0.2,0.1,0.3,0.3,0.6,0.5c0.2,0.2,1.3,1,3.4,2.4c2,1.4,3.4,2.3,4.1,2.6c0.7,0.4,1.5,0.7,2.6,1c1,0.3,2,0.6,2.8,0.7s1.6,0.2,2.3,0.3
		c0.7,0,1.1,0.1,1.4,0.1c0.3,0,1.4-0.1,3.5-0.4c2-0.3,3.6-0.7,4.9-1.1c1.2-0.4,1.9-0.7,2.2-0.7c0.2-0.1,0.7-0.3,1.5-0.8
		c0.8-0.4,1.8-1.1,2.9-2c1.1-0.9,2.1-1.7,2.9-2.5c0.8-0.8,1.6-1.8,2.5-3.2l1.4-2.2"/>
	<path id="STROKE_8c3db7c5-463b-44be-9976-1cbf0cdb4724" class="st0" d="M110.5,92.5l-0.2-0.3l-1.1-3.1c-1.1-2-2.2-3.5-3.2-4.6
		c-1.1-1.1-1.9-1.8-2.4-2.1c-0.5-0.3-1.1-0.7-1.8-1c-0.7-0.3-1.3-0.5-1.9-0.6c-0.5-0.1-1.4-0.2-2.6-0.3c-1.2-0.1-2.4,0-3.4,0.2
		c-1,0.2-1.8,0.4-2.4,0.6c-0.6,0.2-1,0.4-1.1,0.4c-0.1,0.1-0.8,0.4-1.8,1.2c-1.1,0.7-2,1.5-2.7,2.3c-0.7,0.8-1.3,1.4-1.7,2
		c-0.4,0.5-0.8,1.3-1.3,2.3c-0.5,1-0.9,2-1.2,2.8c-0.3,0.8-0.6,2.2-0.9,4.1c-0.3,1.9-0.5,4-0.6,6.4c-0.1,2.4,0,4.2,0.1,5.5
		c0.2,1.3,0.4,2.5,0.8,3.7c0.3,1.1,0.7,2.2,1.2,3.2c0.5,1,0.9,1.8,1.2,2.3c0.4,0.5,0.6,0.9,0.7,1c0.1,0.2,0.9,0.9,2.3,2.2
		c1.4,1.3,2.2,2.1,2.6,2.4c0.3,0.3,1,0.7,2.1,1.4c1,0.7,1.9,1.2,2.6,1.5c0.7,0.3,2,0.6,4.1,1c2,0.4,3.6,0.5,4.8,0.5
		c1.2,0,2.1-0.1,3-0.2s1.7-0.3,2.7-0.7c1-0.3,1.6-0.6,1.9-0.7c0.3-0.2,1-0.6,2-1.3c1-0.7,2.3-1.7,3.7-2.9c0.1-0.1,0.8-0.8,1.8-2.1"
		/>
	<path id="STROKE_c8d95c20-b1b0-4799-a006-9eb8e6f06e67" class="st0" d="M80.5,94.1c0-0.2-0.1-0.9-0.3-2c-0.2-1.1-0.4-1.8-0.5-2.2
		c-0.1-0.4-0.2-0.7-0.3-0.9c-0.1-0.2-0.2-0.4-0.3-0.8c-0.1-0.4-0.7-1.1-1.6-2.2c-0.9-1.1-1.9-2.1-2.9-2.8c-1-0.7-1.8-1.2-2.4-1.4
		c-0.6-0.3-1-0.4-1.3-0.5c-0.3-0.1-0.7-0.2-1.4-0.3c-0.7-0.1-1.3-0.2-1.8-0.2c-0.6,0-1.5,0.1-2.8,0.5c-1.3,0.3-2.5,0.9-3.6,1.7
		c-1.1,0.8-2,1.4-2.6,2c-0.6,0.6-1.1,1.2-1.6,1.8c-0.5,0.6-0.9,1.2-1.2,1.6c-0.3,0.4-0.5,0.8-0.7,1c-0.2,0.2-0.7,1.4-1.6,3.5
		c-0.9,2.1-1.5,3.7-1.8,4.8c-0.3,1.1-0.6,2.4-0.8,3.8c-0.2,1.4-0.3,2.7-0.3,4c0,1.3,0.1,2.5,0.3,3.8c0.2,1.2,0.5,2.6,1.1,4.1
		c0.5,1.5,1.3,3.1,2.5,4.9c1.2,1.8,2.1,3.1,2.7,3.9c0.7,0.8,1.3,1.5,1.9,2.2c0.6,0.7,1.3,1.4,2.1,2.2c0.8,0.8,1.5,1.3,2.1,1.7
		c0.6,0.4,1.1,0.6,1.4,0.8c0.3,0.1,0.6,0.3,0.9,0.4c0.3,0.1,0.9,0.2,1.7,0.4c0.9,0.1,1.9,0.2,3.1,0.1c1.2-0.1,2.3-0.3,3.3-0.7
		c1-0.4,1.9-0.8,2.5-1.1c0.6-0.4,1.3-0.8,2-1.3c0.7-0.5,1.1-0.8,1.1-0.8c0,0,0.5-0.4,1.2-1.1c0.8-0.7,1.4-1.4,2-2.1
		c0.5-0.6,0.9-1.1,1.2-1.5c0.2-0.3,0.9-1.5,2-3.4"/>
	<path id="STROKE_4222e4f3-5303-44d2-83d6-d5cc7cf0e433" class="st0" d="M51,92.3c0-0.1-0.2-0.3-0.4-0.6c-0.2-0.3-0.5-0.7-1-1.3
		c-0.5-0.5-1.1-1.1-1.7-1.7c-0.6-0.6-1.3-1.1-2-1.6c-0.7-0.5-1.4-0.9-2.1-1.2c-0.7-0.3-1.3-0.6-2-0.8c-0.6-0.2-1.2-0.3-1.9-0.3
		c-0.6,0-1.1-0.1-1.5-0.1c-0.3,0-0.9,0.1-1.5,0.2c-0.7,0.1-1.3,0.3-1.8,0.5S34,86,33.6,86.2c-0.4,0.3-1.2,0.9-2.2,1.8
		c-1,0.9-2.2,2.6-3.4,5c-1.2,2.4-2.1,4.3-2.5,5.6c-0.4,1.3-0.7,2.6-0.9,3.9c-0.2,1.3-0.3,2.8-0.3,4.6c0,1.7,0,2.6,0,2.7
		c0,0.1,0.1,0.6,0.3,1.6c0.2,1,0.5,2,0.8,3c0.4,1,1.1,2.3,2.1,4.1c1,1.7,2.1,3.3,3.2,4.6c1.1,1.3,1.9,2.2,2.4,2.6
		c0.5,0.4,0.9,0.7,1.2,1c0.3,0.2,0.7,0.4,1,0.6c0.3,0.2,1.1,0.5,2.3,0.9c1.2,0.4,2.2,0.7,3,0.8c0.8,0.1,2,0.1,3.8,0
		c1.8-0.1,3-0.3,3.7-0.5c0.7-0.2,1.4-0.4,1.8-0.5c0.5-0.2,1.2-0.4,2.1-0.9c0.6-0.4,1.2-0.8,1.8-1.2c0.6-0.5,1.1-0.9,1.4-1.2
		c0.3-0.3,0.7-0.7,1-1.2c0.3-0.5,0.9-1.3,1.9-2.6"/>
	<path id="STROKE_02d78d6a-c850-4497-890e-ad67fbaa171b" class="st0" d="M25.4,97.6c-0.1-0.2-0.2-0.4-0.3-0.6
		c-0.1-0.2-0.2-0.5-0.4-0.9c-0.2-0.4-0.6-0.8-1-1.3c-0.5-0.5-0.9-0.9-1.5-1.1c-0.5-0.3-1.1-0.5-1.7-0.6c-0.7-0.1-1.2-0.2-1.6-0.2
		c-0.4,0-0.9,0.2-1.6,0.4c-0.7,0.3-1.3,0.6-1.8,1c-0.5,0.4-0.8,0.6-0.9,0.6c0,0-0.3,0.2-0.7,0.6c-0.4,0.4-1,1.2-1.9,2.4
		c-0.9,1.2-1.5,2.5-2,3.9c-0.5,1.4-0.8,2.5-0.9,3.4c-0.1,0.9-0.2,1.6-0.2,2.1c0,0.5,0,1,0.1,1.3c0,0.4,0.1,0.9,0.3,1.7
		c0.2,0.8,0.5,1.7,1.1,2.7c0.6,1,1.4,2.1,2.6,3.2c1.1,1.1,2.1,1.8,2.8,2.1c0.8,0.3,1.5,0.6,2.2,0.7c0.7,0.1,1.3,0.2,1.9,0.3
		c0.5,0.1,1,0.1,1.3,0.1c0.3,0,0.8,0,1.3-0.1c0.6-0.1,1-0.1,1.2-0.1c0.3,0,0.6-0.1,1.1-0.2c0.5-0.1,1.5-0.4,3.2-1"/>
	<path id="STROKE_cde3b52d-0f79-4e1d-aeef-f4bef31b99bd" class="st0" d="M134.1,129.9c0.1,0.3,0.2,2.2,0.3,5.6
		c0.1,3.4,0.2,6.1,0.2,7.9c0,1.8,0.1,3.3,0.1,4.5c0.1,1.2,0.1,2,0.1,2.6c0,0.6,0,1.2,0.1,1.8c0,0.6,0.1,1.2,0.3,1.8
		c0,0,0.1-0.1,0.3-0.2s0.5-0.4,1-0.8c0.4-0.4,0.7-0.6,0.9-0.7c0.2-0.1,0.3-0.2,0.4-0.3c0.1-0.1,0.3-0.2,0.6-0.3
		c0.3-0.1,0.7-0.2,1-0.2c0.3,0,0.6,0,0.8,0c0.2,0,0.4,0.1,0.6,0.2c0.2,0.1,0.3,0.2,0.4,0.3c0.1,0.1,0.2,0.3,0.3,0.4
		c0.1,0.2,0.1,0.3,0.1,0.5c0,0.2,0,0.4,0,0.6c0,0.2-0.1,0.3,0,0.3c0,0-0.2,0.3-0.7,0.9c-0.5,0.6-0.9,1-1.3,1.3
		c-0.4,0.3-0.7,0.4-1,0.6c-0.3,0.1-0.6,0.2-0.8,0.2c-0.2,0-0.4,0-0.7,0c-0.3,0-0.6,0-0.9,0c-0.3,0-0.6-0.2-0.9-0.4
		c-0.3-0.2-0.5-0.5-0.6-0.8c-0.1-0.3-0.2-0.5-0.3-0.7c-0.1-0.2-0.1-1-0.3-2.4"/>
	<path id="STROKE_5c59990d-0a08-421a-96c9-2e5012b233d7" class="st0" d="M149.1,125.7c-0.2,0.3-0.2,1.5-0.1,3.5
		c0.1,2,0.1,4.3,0.2,6.6c0.1,2.4,0.2,4,0.3,5c0.1,1,0.3,1.7,0.6,2.2c0.3,0.5,0.6,0.7,1,0.6l1.6-0.1c0,0,0.2-0.1,0.5-0.3
		c0.3-0.1,0.6-0.4,0.9-0.7c0.3-0.3,0.5-0.7,0.7-1.2c0.2-0.5,0.3-1.1,0.2-1.7s0-1.1-0.1-1.2c0-0.1-0.1-0.2-0.1-0.2c0,0,0-0.1-0.1-0.3
		c-0.1-0.2-0.3-0.3-0.5-0.4c-0.2-0.1-0.5-0.1-0.9-0.1c-0.4,0-0.8,0.2-1.3,0.5c-0.5,0.3-0.7,0.6-0.8,0.7s-0.3,0.4-0.6,0.8
		c-0.3,0.4-0.7,1.2-1.3,2.3"/>
	<path id="STROKE_dc1d4deb-882f-4382-a7f7-54126470feb6" class="st0" d="M92.3,125.5c0,0.6,0.2,1.4,0.3,2.5c0.2,1.1,0.4,2.3,0.5,3.5
		c0.2,1.2,0.3,2.7,0.5,4.3c0.2,1.6,0.3,3.3,0.4,5.1c0.1,1.8,0.4,5.7,0.8,11.7l0.2,0c0.1-0.2,0.3-0.4,0.6-0.8
		c0.2-0.4,0.4-0.6,0.5-0.8c0.1-0.1,0.2-0.3,0.5-0.6c0.2-0.3,0.5-0.6,0.7-0.8c0.3-0.2,0.4-0.4,0.4-0.4c0,0,0.2-0.1,0.6-0.3
		c0.4-0.2,0.7-0.3,0.8-0.3c0.2,0,0.4,0.1,0.7,0.2c0.3,0.1,0.5,0.3,0.7,0.6c0.2,0.2,0.4,0.5,0.5,0.7c0.1,0.3,0.2,0.6,0.1,1.1
		c0,0.5,0,0.8-0.1,1c-0.1,0.2-0.2,0.3-0.3,0.5c-0.1,0.2-0.3,0.3-0.6,0.5c-0.3,0.2-0.7,0.3-1.3,0.5c-0.6,0.1-1.2,0.2-1.7,0.2
		c-0.5,0-1,0-1.2,0c-0.3,0-0.6,0-0.8-0.1c-0.2,0-0.6-0.1-1.2-0.3"/>
	<path id="STROKE_42f8d120-f4f3-46cf-96c4-a9ce5b31d34c" class="st0" d="M108.7,127.2l0,0.1l0.2,1.3c0,0.1,0.7,4.3,2,12.7l0.3-0.6
		c0.3-0.5,0.5-0.9,0.7-1.2c0.2-0.3,0.3-0.4,0.3-0.4c0,0,0.1-0.2,0.4-0.5s0.5-0.5,0.9-0.7c0.3-0.1,0.6-0.1,0.7-0.1
		c0.2,0.1,0.4,0.3,0.7,0.6c0.3,0.3,0.5,0.7,0.6,1.2c0.1,0.4,0.1,0.8,0.1,1.2c0,0.4-0.1,0.6-0.2,0.9c-0.1,0.2-0.2,0.4-0.3,0.4
		c-0.1,0.1-0.2,0.2-0.4,0.3c-0.2,0.2-0.6,0.3-1.1,0.5c-0.5,0.2-0.9,0.3-1.2,0.3c-0.3,0-0.6,0-0.9-0.1c-0.3-0.1-0.8-0.3-1.4-0.5"/>
	<path id="STROKE_071993ed-b181-4d8d-8dc7-44a351bf7716" class="st0" d="M63.4,128.7l-0.2,0.2l-0.1,0.1l-0.2,1.6c0,0.2,0,1.4,0,3.6
		c0,2.2,0.1,4.1,0.2,5.7c0.1,1.6,0.2,3.2,0.2,4.8c0.1,1.5,0.2,2.7,0.3,3.4c0.1,0.7,0.3,1.2,0.4,1.5c0.1,0.2,0.2,0.4,0.4,0.6
		c0.1,0.2,0.2,0.2,0.4,0.2c0.1-0.1,0.3-0.2,0.6-0.3s0.5-0.2,0.6-0.3c0.1,0,0.4-0.1,0.7-0.1s0.6,0,0.9,0.1c0.3,0.1,0.6,0.2,0.8,0.5
		c0.2,0.2,0.4,0.5,0.5,0.7c0.1,0.3,0.1,0.5,0.1,0.8c0,0.3-0.1,0.5-0.2,0.6c-0.1,0.1-0.3,0.2-0.5,0.4c-0.2,0.1-0.4,0.2-0.6,0.3
		c-0.3,0.1-0.6,0.1-1,0.1c-0.4,0-0.9-0.2-1.5-0.5c-0.6-0.3-1-0.5-1.1-0.6"/>
	<path id="STROKE_7b6d7439-be8c-4aa8-8f3e-0bcf6bca014f" class="st0" d="M77.6,127.8l-0.2,0.5l-0.1,1l0,1l0.2,2.1
		c0.1,0.2,0.4,1.9,0.9,5c0.5,3.1,0.8,4.7,0.8,4.7c0,0,0.2-0.2,0.4-0.5c0.2-0.3,0.4-0.6,0.6-0.8c0.2-0.2,0.3-0.4,0.4-0.6
		c0.1-0.1,0.3-0.3,0.6-0.6c0.3-0.2,0.6-0.4,0.8-0.5c0.3-0.1,0.5-0.1,0.6,0c0.2,0.1,0.3,0.3,0.5,0.7c0.2,0.4,0.2,0.9,0.1,1.2
		c-0.1,0.4-0.1,0.6-0.2,0.8c-0.1,0.1-0.2,0.3-0.4,0.4c-0.2,0.1-0.4,0.2-0.4,0.2c-0.1,0-0.2,0.1-0.3,0.1c-0.1,0.1-0.7,0.1-1.7,0
		s-1.8-0.1-2.6-0.2"/>
	<path id="STROKE_a01aceb9-c4bd-4add-a8c4-8d618b0596a2" class="st0" d="M35.4,128.4l-0.3-0.3l-0.3-0.3c-0.1-0.3-0.2-0.6-0.3-0.9"/>
	<path id="STROKE_ae8a7900-f57d-4ede-bd67-0770d3d12666" class="st0" d="M35.3,127.2L35.3,127.2l-0.2,0.5c-0.1,0.1-0.2,1.3-0.3,3.7
		c-0.1,2.4-0.2,4.6-0.3,6.6c-0.1,2-0.1,4.8-0.1,8.2l0.3,0c0,0,0.1,0.1,0.2,0.5c0.1,0.3,0.1,0.6,0.2,0.9c0.1,0.2,0.2,0.4,0.2,0.5
		c0.1,0.1,0.2,0.2,0.3,0.4c0.2,0.1,0.3,0.2,0.4,0.3c0.1,0,0.4,0,0.7,0s0.6-0.1,0.8-0.2c0.1-0.1,0.3-0.3,0.5-0.5
		c0.2-0.3,0.3-0.5,0.4-0.7c0-0.2,0.1-0.4,0.1-0.5c0-0.2-0.1-0.4-0.2-0.8l-0.2-0.2c-0.3-0.3-0.7-0.4-1.3-0.4c-0.6,0-1,0.1-1.2,0.1"/>
	<path id="STROKE_769d18ae-5e6d-41de-b52a-70a261453c27" class="st0" d="M48,128.9c0,0.1-0.1,0.6-0.1,1.5c0,0.9,0,1.8,0,2.8
		c0.1,1,0.1,1.6,0.2,1.9c0.1,0.3,0.1,0.7,0.2,1.2c0.1,0.5,0.3,1.3,0.6,2.4c0,0,0.1,0,0.4,0.1c0.3,0,0.5,0.1,0.6,0
		c0.1,0,0.3-0.1,0.4-0.2c0.1-0.1,0.2-0.2,0.2-0.2c0,0,0-0.1,0-0.3c0-0.2-0.1-0.2-0.3-0.2c-0.2,0-0.3,0-0.5,0.1
		c-0.1,0-0.3,0.1-0.5,0.2c-0.2,0.1-0.4,0.3-0.8,0.5"/>
	<path id="STROKE_fff27854-e426-4b81-97d3-ef3709da7f95" class="st0" d="M12.1,114.9l-0.1,0.2c0,0.3-0.1,1.4-0.4,3.5
		c-0.3,2-0.5,3.9-0.6,5.5c-0.1,1.6-0.2,2.8-0.3,3.6c0,0.8,0,1.3,0,1.6c0,0.3,0.1,0.7,0.2,1.1c1,0.3,1.6,0.4,1.9,0.3
		c0.3-0.1,0.5-0.1,0.5-0.2c0,0,0.1-0.1,0.2-0.3c0.1-0.2,0.1-0.4,0.1-0.5c0-0.1-0.1-0.3-0.1-0.4c-0.1-0.1-0.2-0.3-0.4-0.4
		c-0.2-0.1-0.5-0.1-0.9-0.1c-0.4,0.1-0.7,0.2-0.9,0.3c-0.2,0.1-0.8,0.5-1.6,1.2"/>
	<path id="STROKE_bf002dff-c08e-4ad7-ace3-fe6de1e123ad" class="st0" d="M22.2,119.1c-0.1,0.1-0.1,0.1-0.2,0.1c-0.1,0-0.1,1.7,0,5.1
		c0,0.1,0.1,0.1,0.2,0.1c0.2,0,0.3,0,0.3-0.1c0-0.1-0.2-0.1-0.7,0.1"/>
	<path id="STROKE_76d9bd1b-0226-49a7-8a70-97806e01d9b7" class="st0" d="M21.6,124.7l0.4,0.2c0.1,0.2,0.3,0.5,0.5,0.7
		c0.2,0.2,0.4,0.5,0.6,0.7c0.2,0.2,0.4,0.4,0.5,0.5c0.1,0.1,0.3,0.2,0.4,0.2c0.1,0,0.2,0,0.2,0.1c0,0,0.1,0,0.2,0
		c0.2,0,0.3-0.2,0.3-0.4c0-0.2,0-0.5-0.1-0.8l-0.4-0.4l-0.3-0.2c-0.3-0.1-0.7-0.2-1.4-0.4"/>
</g>
<g id="New_Layer_1">
	<path id="STROKE_13d94960-ed11-4192-841f-a343337f36fd" class="st0" d="M218.5,83.7l-0.4,0.6l-0.1,0.7l-0.2,1.8
		c-0.1,0.6,0,3.2,0.1,7.7c0.2,4.5,0.4,8.3,0.7,11.3c0.3,3.1,0.5,5.3,0.7,6.6c0.2,1.4,0.5,2.4,0.7,3.1c0.2,0.7,0.4,1.1,0.5,1.4
		c0.1,0,0.8,0.1,2.3,0.2c1.4,0.1,3.2,0.1,5.2,0c2-0.1,3.9-0.2,5.8-0.3c1.8-0.1,3.1-0.1,4-0.1c0.9,0,2.6,0,5.3,0.1
		c2.7,0,4.8,0.1,6.4,0.1c1.6,0,3.6,0.1,5.8,0.3c2.3,0.2,4.1,0.5,5.7,1c0.6,1.8,0.9,2.7,0.9,2.7c0,0,0.1,1,0.2,2.9
		c0.1,1.9,0.2,3.1,0.2,3.5c0,0.5,0.1,1.7,0.2,3.7c0.1,2,0.2,3.3,0.2,3.8c0,0.5,0.1,0.9,0.1,1c0,0.1,0,0.4,0.1,1
		c0,0.5,0.1,1.3,0.2,2.2c0.1,0.9,0.3,1.7,0.4,2.3c0.1,0.6,0.5,1.5,0.9,2.6c0.9-0.8,1.6-1.4,2-1.9c0.4-0.5,0.7-0.9,0.9-1.2
		c0.2-0.3,1.1-1.3,2.6-3l1.4-1.5c1-1.1,2.3-2.4,4-4.1c1.7-1.7,3-3.1,4.1-4.3c1.1-1.2,2.3-2.6,3.8-4.4c1.4-1.8,2.4-2.9,2.9-3.5
		c0.5-0.6,0.9-1.1,1.2-1.6c0.3-0.4,0.8-1,1.4-1.8c0.6-0.8,1.5-1.9,2.8-3.6c1.3-1.6,2.6-3.1,3.7-4.5c1.2-1.4,2-2.4,2.5-3
		c0.5-0.6,1.2-1.6,2.1-2.9c0.9-1.3,1.8-2.7,2.7-4.1"/>
	<path id="STROKE_d09e9412-1c29-44ae-a8cd-b601ce3dcaa0" class="st0" d="M219.4,81.8l0.1,0c0.1-0.1,1.4-0.1,3.8-0.1s4.3,0,5.7,0
		c1.4,0,2.7,0,4,0.1s2,0.1,2.2,0c0.2,0,1.8,0,4.7,0c2.9,0,5.6,0,7.9,0.1c2.4,0,4.1,0,5.1,0c1.1,0,2,0,2.7,0s1.1,0,1.2,0
		c0.1,0,1,0,2.8,0l0,0c-0.2-0.2-0.2-0.4-0.1-0.4l0-0.3c-0.1,0-0.1-7-0.1-20.9c0-0.1,0-0.4,0-0.8c0-0.4,0.2-1,0.4-1.9"/>
	<path id="STROKE_f9bad743-d6f3-4be8-8ef9-4aa8ad91e469" class="st0" d="M261,56.3l0,0.5l0.4,1.2c0.3,0.5,1.6,1.9,3.8,4.4
		c2.2,2.5,4.2,4.5,6,6.1c1.8,1.6,3.5,2.9,5.1,4c1.6,1.1,3.2,2.3,4.7,3.5c1.5,1.2,3.1,2.7,4.7,4.4c1.6,1.7,3.1,3.2,4.5,4.6
		c1.4,1.3,2.4,2.4,3.2,3.1c0.8,0.8,1.4,1.3,1.8,1.7c0.4,0.4,0.8,0.6,1.1,0.8c0.3,0.2,0.6,0.4,0.9,0.7c0.3,0.3,0.7,0.6,1,0.9
		c0.3,0.3,0.7,0.6,1,0.9c0.3,0.3,0.6,0.5,0.8,0.7c0.2,0.2,0.5,0.5,0.9,1c0.4,0.5,0.8,0.8,1.4,1.2"/>
</g>
<g id="New_Layer_2">
	<path id="STROKE_30ece886-fdb7-48a5-8c27-5eebc7f21ee9" class="st0" d="M317.8,39.1l0.4-0.2c0.8-0.3,1.7-0.7,2.6-1
		c1-0.4,2.3-0.9,4.2-1.5c1.8-0.6,3.3-1.1,4.3-1.4s2.3-0.6,3.7-1c1.4-0.4,2.8-0.8,4.1-1.1c1.3-0.4,2.5-0.7,3.5-1
		c1-0.3,1.9-0.6,2.8-0.8c0.8-0.2,2.1-0.6,3.8-1.1c1.7-0.5,3-0.9,4-1.1c1-0.3,1.9-0.6,2.8-0.8s1.8-0.5,2.8-0.8s2-0.6,2.9-0.8
		c0.9-0.2,1.9-0.5,2.9-0.8c1-0.3,2-0.6,2.9-0.8c0.9-0.3,2.1-0.7,3.7-1.1c1.6-0.5,2.8-0.9,3.6-1.1c0.8-0.2,1.6-0.5,2.5-0.7
		c0.9-0.3,2-0.6,3.3-0.9s3.1-0.9,5.4-1.7c2.3-0.7,4.3-1.3,6-1.8c1.7-0.5,3-0.8,4-1c0.9-0.2,2.4-0.6,4.5-1.1c2.1-0.6,3.3-0.9,3.5-0.9
		c0.2-0.1,0.4-0.1,0.4-0.1c0,0,1.7-0.4,4.9-1.2c3.2-0.8,5.4-1.3,6.4-1.6c1.1-0.3,1.8-0.5,2.4-0.6c0.5-0.1,0.8-0.2,0.8-0.2
		c0,0,0.4-0.2,1.2-0.5l0.4-0.6l0.4-0.5"/>
	<path id="STROKE_91801a78-30d1-4193-9dfd-95259d41b046" class="st0" d="M321.5,45.3l0.1-0.1c0,0,0-0.1,0.1-0.1c0,0,0.2-0.1,0.5-0.3
		s0.9-0.4,1.9-0.8c0.9-0.4,2-0.8,3.3-1.3c1.3-0.5,2.3-0.9,3.3-1.3s1.9-0.8,3-1.1c1.1-0.3,2.4-0.7,3.9-1.1c1.5-0.4,2.7-0.7,3.5-1
		c0.8-0.3,1.3-0.4,1.7-0.5c0.3-0.1,0.7-0.2,1.1-0.3c0.4-0.1,1-0.2,1.9-0.4c0.9-0.2,1.6-0.3,2.2-0.4c0.6-0.1,1.3-0.2,2.1-0.4
		c0.8-0.2,1.4-0.3,1.7-0.4c0.4-0.1,0.6-0.1,0.7-0.2c0.1,0,2.2-0.5,6.4-1.5l0.5-0.2"/>
	<path id="STROKE_6f8facaf-1f9b-4c3a-9d0c-ab024023b13d" class="st0" d="M377.4,30.8c0.1,0,1.4-0.4,3.8-1.2c2.4-0.8,4.4-1.4,5.8-1.8
		c1.4-0.5,2.3-0.7,2.7-0.8c0.4-0.1,1.3-0.4,2.7-0.8c1.4-0.4,2.4-0.7,3.1-1c0.7-0.2,1.3-0.5,1.8-0.7c0.5-0.2,1.5-0.6,3.1-1.2
		c1.6-0.6,2.6-1,3-1.1c0.5-0.2,1.1-0.4,2-0.6c0.9-0.2,2-0.6,3.3-1c1.3-0.4,2.5-0.8,3.3-1.1c0.9-0.3,1.7-0.6,2.4-0.9
		c0.7-0.3,1.3-0.5,1.8-0.7c0.5-0.2,0.9-0.4,1.2-0.5c0.3-0.1,1.2-0.6,2.7-1.3"/>
	<path id="STROKE_05280fc3-555f-44a1-ba7a-196f56c49dfa" class="st0" d="M359.4,34.1l0.1,0.1c0.3,0.1,0.7,0.1,1.3,0.2
		c0.6,0.1,1.2,0.2,1.7,0.4c0.6,0.2,1.1,0.4,1.6,0.6c0.5,0.2,0.9,0.5,1.3,0.9c0.4,0.3,0.8,0.7,1,1c0.3,0.3,0.5,0.7,0.8,1.2
		c0.3,0.5,0.6,1.2,0.9,2c0.3,0.8,0.5,1.5,0.6,1.9c0.1,0.4,0.2,0.8,0.2,1.2c0.1,0.4,0.2,1.9,0.4,4.3l0.2,0.9"/>
	<path id="STROKE_94176029-1c4d-4833-8f40-4e415866d707" class="st0" d="M378.1,31.2c-0.5,0.1-0.9,0.2-1.2,0.3
		c-0.3,0.1-0.6,0.2-1,0.4c-0.3,0.2-0.6,0.4-0.7,0.6c-0.2,0.2-0.3,0.4-0.4,0.6c-0.1,0.3-0.2,0.4-0.3,0.4c0,0-0.1,0.4-0.3,1.1
		c-0.2,0.7-0.3,2-0.3,4c-0.1,2-0.1,3.3,0,4.1c0,0.7,0.1,1.3,0.1,1.7c0,0.4,0.1,0.9,0.2,1.4c0.1,0.6,0.1,0.9,0.2,1.1
		c0,0.1,0.1,0.5,0.3,1.1"/>
	<path id="STROKE_a11f63f0-a3d6-430f-b965-0a43e97a5a64" class="st0" d="M368.6,49.2c-0.4,0.2-0.7,0.4-0.9,0.5
		c-0.2,0.2-0.4,0.4-0.7,0.6c-0.3,0.2-0.6,0.6-1.1,1c-0.5,0.4-1,0.8-1.5,1.2c-0.5,0.4-1.1,0.9-2,1.5c-0.8,0.6-2.2,1.8-4.1,3.5
		c-0.5,0.5-0.9,1-1.2,1.4c-0.2,0.4-0.6,0.8-1.1,1.3c-0.1,0.1-0.3,0.2-0.7,0.5c-0.4,0.3-1,0.7-1.7,1.2c-0.8,0.6-1.3,1-1.7,1.2
		c-0.3,0.3-0.6,0.5-0.9,0.7c-0.3,0.2-0.7,0.6-1.2,1.2c-0.6,0.6-1.1,1.2-1.7,1.8c-0.5,0.6-1,1.2-1.5,1.7c-0.4,0.5-0.8,0.9-1,1.2
		c-0.3,0.3-0.5,0.6-0.8,0.9c-0.3,0.3-0.6,0.6-0.8,1l-0.3,0.2l-0.4,0.2c-0.5,0.5-0.9,1-1.2,1.5c-0.4,0.5-0.7,0.9-1,1.3
		s-0.8,1-1.4,1.8c-0.7,0.9-1.2,1.5-1.7,2c-0.5,0.5-0.7,0.8-0.7,0.8c0,0-0.3,0.3-0.8,0.9c-0.5,0.6-1,1.3-1.6,2.1
		c-0.6,0.8-1,1.5-1.3,2.1c-0.3,0.6-0.4,0.9-0.4,0.9c0,0-0.2,0.6-0.6,1.6c-0.4,1.1-0.8,1.9-1,2.6c-0.2,0.7-0.5,1.5-0.8,2.5
		c-0.3,1-0.5,1.8-0.6,2.4c-0.1,0.6-0.2,1.5-0.2,2.9c-0.1,1.4-0.1,2.3-0.1,2.8c0,0.5,0,0.8,0,0.8c0,0.1,0,0.4,0.1,1
		c0.1,0.6,0.1,1.2,0.3,1.7c0.1,0.6,0.3,1.1,0.4,1.5c0.1,0.4,0.3,1,0.5,1.6c0.2,0.6,0.4,1.1,0.5,1.5c0.1,0.4,0.3,0.8,0.5,1.3
		c0.2,0.5,0.5,1.1,0.8,1.6c0.3,0.6,0.6,1.2,1.1,1.9c0.5,0.7,0.7,1.1,0.7,1.1c0,0,0.2,0.3,0.7,1c0.5,0.6,0.8,1.1,1.1,1.5
		c0.3,0.4,0.7,1,1.4,1.9c0.6,0.9,1.1,1.7,1.5,2.3c0.4,0.6,0.7,1.2,1,1.7c0.3,0.5,0.5,0.9,0.7,1.3c0.2,0.4,0.6,1.2,1.1,2.6
		c0.5,1.3,0.9,2.4,1.1,3.2c0.2,0.8,0.4,1.5,0.6,2c0.1,0.5,0.2,1,0.3,1.3c0.1,0.3,0.2,0.9,0.3,1.6c0.1,0.8,0.3,1.8,0.5,3.2
		s0.4,2.3,0.4,2.8c0.1,0.5,0.2,1,0.3,1.5c0.1,0.5,0.3,1.3,0.4,2.4s0.3,1.9,0.4,2.5c0.1,0.6,0.1,1.1,0.2,1.5c0.1,0.4,0.1,0.6,0.1,0.7
		c0,0,0,0.4,0.1,1.3c0.1,0.8,0.1,1.7,0.2,2.6c0.1,0.9,0.1,1.5,0.1,1.7c0,0.2,0,0.5,0,1c0,0.5,0.1,1.4,0.2,2.8
		c0.1,1.4,0.3,2.5,0.5,3.3c0.2,0.8,0.4,1.5,0.6,2.2c0.2,0.6,0.5,1.1,0.7,1.5c0.2,0.4,0.5,0.7,0.8,1.1c0.3,0.4,0.8,1,1.6,1.7
		c0.8,0.8,1.5,1.5,2.3,2.2c0.8,0.7,1.5,1.3,2.2,1.8c0.7,0.5,1.1,0.8,1.3,1c0.2,0.1,0.7,0.4,1.5,0.7c0.8,0.3,1.6,0.6,2.5,0.9
		c0.8,0.2,1.8,0.4,2.7,0.6c1.4,0.1,2.3,0.2,2.6,0.2c0.4,0,0.6,0,0.7,0.1c0.1,0,0.4,0,1,0c0.6,0,1.1,0,1.7-0.1c0.6,0,1.1-0.2,1.8-0.3
		c0.6-0.2,1.2-0.3,1.7-0.5s0.9-0.3,1-0.4c0.1-0.1,0.3-0.2,0.5-0.3c0.2-0.1,0.5-0.3,0.8-0.6c0.3-0.2,0.6-0.5,0.8-0.7
		c0.2-0.2,0.4-0.4,0.4-0.4c0,0,0.4-0.5,1.2-1.5c0.8-1,1.4-1.8,1.8-2.3c0.4-0.5,0.9-1,1.4-1.5c0.5-0.5,0.9-0.8,1.1-0.9
		c0.2-0.1,0.7-0.6,1.6-1.3c0.9-0.7,1.5-1.3,1.9-1.6c0.4-0.3,0.6-0.5,0.6-0.5c0,0,0.3-0.2,0.7-0.6c0.5-0.4,1.2-1.1,2.2-2.1
		c1-1.1,1.8-2,2.4-2.8c0.6-0.8,1-1.4,1.2-1.7c0.2-0.3,0.3-0.5,0.3-0.5c0,0,0.1-0.2,0.3-0.6c0.2-0.4,0.4-0.7,0.5-1
		c0.1-0.3,0.2-0.5,0.4-0.8c0.1-0.3,0.4-1.1,0.7-2.4c0.4-1.3,0.7-2.5,0.9-3.7c0.3-1.1,0.5-2,0.7-2.7c0.2-0.7,0.3-1.2,0.4-1.4
		c0.1-0.2,0.2-0.7,0.3-1.5c0.2-0.8,0.3-1.5,0.4-2.2c0.1-0.7,0.2-1.4,0.2-2.2c0.1-0.7,0.1-2,0.2-3.6c0.1-1.7,0.2-3.8,0.3-6.3
		c0.1-2.5,0.2-4.1,0.3-4.6c0-0.6,0.1-1.2,0.3-1.8c0.1-0.6,0.2-1.1,0.3-1.5c0.1-0.3,0.1-0.6,0.1-0.7c0.2-0.3,0.3-0.4,0.3-0.4
		c0,0,0.3-0.3,0.8-0.8c0.5-0.5,1.1-1.1,1.7-1.7c0.6-0.6,1.3-1.3,2-2.1c0.8-0.8,1.3-1.4,1.7-1.8c0.4-0.4,0.8-0.9,1.3-1.4
		c0.5-0.5,0.8-0.9,0.9-1.1c0.1-0.2,0.3-0.4,0.4-0.6s0.3-0.7,0.5-1.3c0.2-0.6,0.3-1.2,0.4-1.8c0.1-0.6,0.1-1.1,0-1.8
		c0-0.6-0.1-1-0.2-1.3c-0.1-0.2-0.2-0.5-0.3-0.9c-0.1-0.3-0.4-0.8-0.7-1.4c-0.3-0.6-0.6-1.1-0.9-1.6s-0.4-1.2-0.5-2
		c-0.1-0.8-0.1-1.6-0.1-2.4c0-0.8,0.1-1.4,0.1-2c0-0.6,0.1-1.3,0.1-2c0-0.8,0-1.6-0.2-2.4c-0.1-0.8-0.3-1.4-0.4-1.8
		c-0.1-0.4-0.3-0.6-0.4-0.8c-0.1-0.2-0.3-0.4-0.4-0.6c-0.1-0.2-0.3-0.4-0.5-0.6s-0.7-0.7-1.5-1.4c-0.2-0.2-0.6-0.7-1.1-1.4
		c-0.2-0.6-0.3-0.9-0.3-1.2s0-0.3,0-0.4c0,0,0-0.4-0.1-1.1c-0.1-0.7-0.1-1.3-0.3-1.9c-0.1-0.6-0.2-1-0.2-1.2
		c-0.1-0.2-0.1-0.5-0.2-0.7c-0.1-0.2-0.2-0.5-0.4-0.8c-0.2-0.3-0.4-0.7-0.7-1.2c-0.3-0.5-0.5-0.8-0.6-0.9c-0.1-0.1-0.3-0.3-0.7-0.6
		c-0.4-0.3-0.6-0.5-0.8-0.6s-0.5-0.4-0.8-0.7s-0.6-0.5-0.7-0.7c-0.1-0.2-0.3-0.4-0.4-0.7s-0.3-0.7-0.4-1.1s-0.2-0.7-0.2-0.7
		c0,0-0.1-0.4-0.1-1.1c-0.1-0.7-0.1-1.3-0.1-1.8c0-0.5,0-0.9-0.1-1.2c0-0.3-0.1-0.6-0.1-0.8c0-0.2-0.1-0.5-0.4-1
		c-0.2-0.5-0.4-0.9-0.6-1.1c-0.2-0.2-0.4-0.5-0.7-0.7c-0.2-0.2-0.5-0.5-0.9-0.8c-0.4-0.3-0.7-0.5-0.9-0.6c-0.2-0.1-0.5-0.3-0.7-0.5
		c-0.3-0.2-0.5-0.3-0.7-0.5c-0.1-0.1-0.3-0.2-0.3-0.3c-0.1-0.1-0.2-0.3-0.3-0.6c-0.1-0.3-0.3-0.6-0.4-0.9c-0.1-0.3-0.2-0.4-0.3-0.6
		c-0.1-0.1-0.3-0.3-0.6-0.5c-0.3-0.2-0.7-0.4-1-0.6c-0.3-0.2-0.7-0.3-1-0.4c-0.3-0.1-0.6-0.2-0.8-0.3c-0.2-0.1-0.5-0.2-0.8-0.3
		c-0.4-0.1-1-0.4-1.9-0.7c-0.9-0.3-1.6-0.6-2.1-0.8c-0.5-0.2-0.8-0.3-0.8-0.3c0,0-0.2-0.1-0.5-0.2c-0.3-0.1-0.6-0.2-0.9-0.3
		c-0.3-0.1-0.6-0.3-1-0.4c-0.4-0.2-0.9-0.4-1.4-0.7c-0.5-0.3-1.3-0.7-2.2-1.3"/>
	<path id="STROKE_dcc4f704-0a00-4324-b026-e42ed06a11ab" class="st0" d="M369.7,58.7c0.7,0,1.5,0.1,2.2,0c0.8,0,1.5-0.1,2.2-0.1
		c0.7-0.1,1.2-0.1,1.5-0.1c0.3,0,0.5,0,0.7-0.1c0.2,0,2.9-0.4,8.2-1.2"/>
	<path id="STROKE_396a6e37-a64e-4260-88d9-456ed3dcf7ce" class="st0" d="M351,68.3c0.1,0,0.2,0,0.4-0.1c0.2-0.1,0.4-0.1,0.6-0.2
		c0.2,0,0.6-0.1,1.2-0.1c0.5,0,1.4-0.1,2.6-0.1c1.2,0,2.1,0,2.8,0.1c0.7,0.1,1.4,0.1,1.9,0.2c0.6,0.1,1.8,0.2,3.6,0.4
		c1.8,0.2,3.4,0.4,4.6,0.5c1.3,0.1,3,0.2,5.1,0.3c2.1,0,4.2,0.1,6.2,0c2,0,3.2-0.1,3.5-0.1c0.3,0,0.5,0,0.5,0c0,0,0.5,0,1.2-0.1
		c0.8-0.1,1.7-0.2,2.7-0.4c1-0.2,2.3-0.4,3.9-0.7l1.3-0.2l1-0.1"/>
	<path id="STROKE_21162e0f-5ab4-48b7-a524-a439d44801e0" class="st0" d="M338.7,81.2c0.1,0,0.2-0.1,0.4-0.2c0.2-0.1,0.4-0.1,0.6-0.2
		c0.2,0,0.4,0,0.6,0s0.3,0,0.3,0s0.7,0.1,1.9,0.2c1.3,0.1,3,0.3,5.3,0.5c2.2,0.2,3.9,0.3,4.8,0.4c1,0.1,2.2,0.2,3.7,0.4
		c1.5,0.2,3,0.3,4.3,0.4c1.4,0.1,2.7,0.1,3.8,0.2c1.2,0,2.7,0,4.5,0c1.9,0,3.4,0,4.6-0.1c1.2,0,2.4-0.1,3.4-0.1
		c1.1,0,2.2-0.1,3.5-0.1c1.3,0,1.9,0,2,0c0.1,0,1.1,0,2.9-0.1c1.8-0.1,2.9-0.2,3.3-0.2c0.4,0,1-0.1,1.9-0.2c0.9-0.1,1.7-0.2,2.4-0.3
		c0.8-0.1,1.4-0.3,2.1-0.4c0.6-0.1,1.5-0.4,2.7-0.7c1.2-0.3,2.2-0.7,3.2-1.1"/>
	<path id="STROKE_808274fe-710b-4ddf-876f-2d3b3ac45149" class="st0" d="M332.9,93.4l0.9,0.3l0.2,0.2l0.5,0.3l0.6,0.2
		c0.7,0.3,2.4,0.5,5.1,0.8c2.7,0.2,5.8,0.5,9.3,0.8c3.5,0.3,6.6,0.6,9.4,1c2.7,0.4,4.9,0.7,6.5,0.9c1.6,0.2,3.4,0.4,5.3,0.5
		c2,0.1,3.7,0.1,5.1,0.1c1.4,0,3.1,0,5.3-0.1c2.1-0.1,3.8-0.2,4.9-0.3c1.2-0.1,2-0.2,2.6-0.3c0.6-0.1,1.2-0.2,1.9-0.3
		c0.6-0.1,1.4-0.3,2.3-0.4c0.9-0.2,1.8-0.4,2.8-0.6c1-0.3,2.3-0.6,4-1.1c1.7-0.5,2.8-0.8,3.3-1c0.5-0.2,1-0.3,1.5-0.5
		c0.5-0.1,1.1-0.3,1.8-0.6"/>
	<path id="STROKE_544c20ee-a427-44f4-b87f-e2c458324557" class="st0" d="M332.2,93c0.1,0.4,0.4,0.9,0.8,1.6c0.4,0.6,0.7,1.1,1,1.5
		s0.6,0.8,1,1.2c0.4,0.4,0.7,0.7,0.8,0.9c0.2,0.2,0.4,0.4,0.6,0.6c0.2,0.2,0.6,0.5,1.2,0.9c0.6,0.4,1.2,0.8,1.8,1.1
		c0.6,0.3,1.2,0.6,1.9,1c0.7,0.4,1.3,0.7,1.7,0.9c0.4,0.2,1.2,0.5,2.2,0.9s1.5,0.6,1.5,0.6c0,0,0.3,0.1,0.7,0.3
		c0.4,0.2,0.9,0.3,1.3,0.5c0.4,0.2,0.8,0.3,1.1,0.4c0.3,0.1,0.6,0.3,1,0.5c0.5,0.6,0.9,1,1.3,1.2c0.4,0.3,0.8,0.6,1.4,1
		c0.6,0.4,1.1,0.7,1.5,1c0.5,0.3,1,0.7,1.5,1c0.5,0.4,1,0.8,1.6,1.3c0.5,0.5,1,1,1.5,1.4c0.4,0.5,0.7,0.8,0.9,1
		c0.1,0.2,0.3,0.4,0.4,0.7c0.1,0.2,0.2,0.4,0.2,0.4c0,0,0.1,0.3,0.3,0.7c0.2,0.5,0.4,0.9,0.6,1.2c0.2,0.3,0.3,0.5,0.3,0.5
		c0,0,0.2,0.3,0.7,0.8c0.5,0.5,0.9,0.9,1.5,1.3c0.5,0.4,0.9,0.7,1.1,0.8c0.2,0.1,0.4,0.3,0.7,0.5c0.3,0.2,0.5,0.5,0.8,0.8
		c0.3,0.3,0.5,0.6,0.6,0.8c0.1,0.2,0.2,0.5,0.4,0.9c0.1,0.2,0.2,0.7,0.4,1.5c0.2,0.8,0.4,1.7,0.5,2.7c0.1,1,0.3,1.8,0.4,2.5
		c0.1,0.3,0.2,1,0.5,2.2c0.3,1.2,0.5,2.1,0.6,2.8c0.1,0.7,0.2,1.2,0.2,1.5c0,0.3,0,0.8,0,1.3c0,0.5,0,0.9-0.1,1.1
		c0,0.2-0.2,0.7-0.4,1.4s-0.5,1.3-0.7,1.8c-0.2,0.5-0.3,0.8-0.5,1c-0.1,0.2-0.3,0.6-0.5,1s-0.5,0.9-0.7,1.3
		c-0.3,0.4-0.4,0.8-0.6,0.9c-0.1,0.2-0.3,0.4-0.5,0.8c-0.2,0.3-0.4,0.7-0.7,1.2c-0.2,0.5-0.4,1-0.5,1.7c-0.1,0.6-0.2,1.2-0.3,1.6
		c-0.1,0.5-0.1,0.7-0.1,0.7c0,0,0,0.2-0.1,0.7c-0.1,0.4-0.2,1.2-0.4,2.2c-0.2,1.1-0.3,1.8-0.3,2.1c0,0.4,0,1.1,0,2.1
		c0,1,0.1,1.8,0.2,2.4c0.1,0.6,0.2,1.1,0.4,1.5c0.1,0.4,0.3,0.9,0.6,1.4c0.2,0.5,0.5,0.9,0.7,1.3c0.2,0.4,0.5,0.7,0.7,1
		c0.2,0.3,0.5,0.7,1,1.1c0.4,0.5,0.8,0.9,1.2,1.2s0.7,0.6,0.9,0.9c0.3,0.2,0.6,0.5,1,0.8c0.4,0.3,0.8,0.6,1.2,0.9l0.4,0.2
		c0.2,0.1,0.6,0.2,1.2,0.4"/>
	<path id="STROKE_8b001404-504d-4f23-9607-969d0426f7ff" class="st0" d="M370.1,152.8c0,0.1-0.1,0.6-0.2,1.6c-0.1,1-0.1,1.7,0,2.3
		c0.1,0.5,0.2,0.9,0.3,1c0.1,0.2,0.2,0.3,0.3,0.4c0.1,0.1,0.3,0.2,0.6,0.2c0.3,0.1,0.6,0.1,0.8,0c0.2-0.1,0.5-0.2,0.7-0.4
		c0.2-0.2,0.4-0.4,0.6-0.6c0.2-0.2,0.3-0.5,0.5-0.8s0.2-0.6,0.3-1c0.1-0.4,0.1-0.7,0.1-1c0-0.3-0.1-0.6-0.1-0.8
		c0-0.2-0.1-0.4-0.2-0.6c-0.1-0.2-0.3-0.5-0.5-0.7c-0.2-0.2-0.4-0.4-0.6-0.5c-0.2-0.1-0.3-0.2-0.4-0.2c-0.1-0.1-0.4-0.1-0.8-0.2
		s-0.8-0.1-1,0c-0.2,0-0.4,0.1-0.6,0.2c-0.2,0.1-0.4,0.1-0.6,0.2"/>
	<path id="STROKE_ee53a557-837f-4735-b43c-551d18778e1a" class="st0" d="M376.2,137.4c-0.5,0.4-0.9,0.8-1.2,1.2
		c-0.3,0.4-0.4,1.1-0.5,2.1c0,1,0.1,1.6,0.3,1.9c0.2,0.3,0.4,0.5,0.6,0.6c0.2,0.1,0.3,0.2,0.4,0.3c0.1,0,0.2,0.1,0.2,0.1
		c0.1,0.1,0.5,0.1,1.2,0.2c0.7,0.1,1.3,0.1,1.7,0c0.4-0.1,0.7-0.2,0.9-0.3c0.2-0.1,0.4-0.3,0.6-0.6c0.2-0.3,0.4-0.6,0.5-0.9
		c0.1-0.3,0.1-0.7,0.1-1.1c0-0.4,0-0.7-0.1-0.9c-0.1-0.2-0.1-0.3-0.2-0.4c-0.1-0.1-0.2-0.3-0.5-0.6c-0.3-0.3-0.6-0.6-1-0.8
		c-0.4-0.2-1-0.4-1.8-0.6c-0.8-0.1-1.2-0.2-1.3-0.2c-0.1,0-0.4,0.1-0.9,0.2"/>
	<path id="STROKE_f5c34b75-9bfe-4936-a7d7-690835e56090" class="st0" d="M385,125.4l-0.4,0l-0.5,0.1c-0.7,0.2-1,0.3-1,0.3
		c0,0-0.1,0.1-0.4,0.2c-0.2,0.1-0.5,0.4-0.9,0.7c-0.4,0.4-0.6,0.7-0.7,1c-0.1,0.3-0.2,0.7-0.2,1.1c0,0.4,0,0.7,0.2,0.9
		c0.1,0.2,0.3,0.4,0.5,0.6s0.4,0.3,0.6,0.3c0.1,0.1,0.4,0.1,0.9,0.1c0.4,0,0.8,0,1-0.1c0.2-0.1,0.5-0.2,0.8-0.4
		c0.3-0.2,0.6-0.5,0.9-0.8c0.2-0.3,0.5-0.7,0.6-1.2c0.2-0.5,0.2-0.9,0.2-1.2c0-0.3-0.1-0.6-0.2-0.9c-0.1-0.3-0.3-0.5-0.5-0.7
		c-0.2-0.2-0.4-0.3-0.6-0.4c-0.1-0.1-0.4-0.1-0.6-0.2c-0.3-0.1-0.5-0.1-0.6-0.1c-0.1,0-0.4,0-0.8,0.1"/>
	<path id="STROKE_6fcc92b4-dcdc-473f-9756-f51836fd4277" class="st0" d="M351.8,158.6c0.1,0.1,0.2,0.6,0.3,1.3
		c0.1,0.7,0.2,1.3,0.3,1.7c0.1,0.4,0.3,0.7,0.4,0.9c0.1,0.2,0.3,0.3,0.4,0.5c0.1,0.1,0.3,0.2,0.5,0.3c0.2,0.1,0.4,0.1,0.5,0.1
		c0.2,0,0.3,0,0.6-0.2c0.2-0.1,0.4-0.3,0.6-0.7c0.2-0.4,0.3-0.7,0.3-1.1c0-0.4,0-0.7-0.1-1.1c-0.1-0.3-0.4-0.8-0.8-1.2
		c-0.4-0.5-0.8-0.8-1-0.9c-0.2-0.1-0.5-0.2-0.9-0.4c-0.4-0.1-0.7-0.2-0.9-0.2l-0.8,0.2"/>
	<path id="STROKE_dfc0a705-7b80-470f-a97d-c591df9344f5" class="st0" d="M346.2,101c0.5,0.2,1.2,0.5,2.1,0.9
		c0.9,0.4,1.8,0.7,2.7,0.9c0.9,0.2,1.6,0.3,2.1,0.3c0.5,0,1.5-0.1,3-0.2c0.3-0.1,0.8-0.4,1.7-0.9l0.4,0"/>
	<path id="STROKE_773c6b31-c026-4961-bf81-0962328ceac9" class="st0" d="M362.4,102.2c0.1,0,0.2,0.1,0.4,0.2s0.5,0.2,1.1,0.4
		c0.6,0.2,1,0.4,1.3,0.4c0.3,0.1,0.5,0.1,0.5,0.1c0,0,0.3,0.1,0.7,0.2c0.5,0.1,1,0.1,1.5,0.2c0.5,0,1,0,1.4,0c0.4,0,0.7-0.1,0.9-0.1
		c0.2-0.1,0.4-0.1,0.5-0.1c0.1,0,0.5-0.1,1.3-0.4"/>
	<path id="STROKE_32e139b5-9602-4ab4-bfb7-369afae58bdc" class="st0" d="M377.2,102.2l0.1,0.2l0.1,0.3c0.2,0.2,0.9,0.5,2,0.7
		c1.1,0.2,1.9,0.4,2.5,0.3c0.6,0,1.2-0.2,1.8-0.4s1.1-0.5,1.5-0.8c0.3-0.3,0.8-0.7,1.4-1.2"/>
	<path id="STROKE_19c05df7-bcc6-4517-82e9-e18a9244c39b" class="st0" d="M391,102l0.2,0.1c0.2,0.1,0.4,0.2,0.8,0.2
		c0.3,0.1,0.8,0.1,1.4,0.2c0.6,0,1.2,0,2-0.1c0.7-0.1,1.3-0.3,1.7-0.4c0.4-0.2,0.7-0.4,1-0.5c0.2-0.2,0.4-0.3,0.4-0.3
		c0,0,0.4-0.3,1.1-0.9"/>
	<path id="STROKE_dc59c077-9ec7-4b67-803c-fe0cb0318abb" class="st0" d="M401.7,98.7l0.3,0l0.6,0c0.4,0,0.6-0.1,0.7-0.1
		c0.1,0,0.5-0.1,1.3-0.4"/>
</g>
</svg>
